<?xml version="1.0" standalone="no"?>
<!DOCTYPE svg PUBLIC "-//W3C//DTD SVG 20010904//EN"
 "http://www.w3.org/TR/2001/REC-SVG-20010904/DTD/svg10.dtd">
<svg version="1.0" xmlns="http://www.w3.org/2000/svg"
 width="490.000000pt" height="733.000000pt" viewBox="0 0 490.000000 733.000000"
 preserveAspectRatio="xMidYMid meet">

<g transform="translate(0.000000,733.000000) scale(0.100000,-0.100000)"
fill="#000000" stroke="none">
<path d="M0 3665 l0 -3665 2450 0 2450 0 0 3665 0 3665 -2450 0 -2450 0 0
-3665z m4701 3426 l39 -39 0 -3402 0 -3402 -39 -39 -39 -39 -2207 0 -2207 0
-39 39 -39 39 0 3402 0 3402 39 39 39 39 2207 0 2207 0 39 -39z"/>
<path d="M229 7071 l-29 -29 0 -3392 0 -3392 29 -29 29 -29 2197 0 2197 0 29
29 29 29 0 3392 0 3392 -29 29 -29 29 -2197 0 -2197 0 -29 -29z m4213 -238
c17 -15 18 -48 18 -616 0 -545 -2 -602 -17 -619 -15 -17 -90 -18 -1986 -18
-1819 0 -1972 1 -1989 17 -17 15 -18 48 -18 616 0 545 2 602 17 619 15 17 90
18 1986 18 1819 0 1972 -1 1989 -17z m-3268 -1397 c49 -20 112 -81 135 -130
20 -39 21 -60 21 -291 0 -282 -4 -300 -82 -370 -69 -63 -80 -65 -358 -65 -278
0 -289 2 -358 65 -78 70 -82 88 -82 368 0 275 2 286 64 355 71 79 87 82 374
82 194 0 260 -3 286 -14z m1040 0 c49 -20 112 -81 135 -130 20 -39 21 -60 21
-291 0 -282 -4 -300 -82 -370 -69 -63 -80 -65 -353 -65 -273 0 -284 2 -353 65
-78 70 -82 88 -82 368 0 275 2 286 64 355 71 78 88 82 369 82 190 0 255 -3
281 -14z m1050 0 c49 -20 112 -81 135 -130 20 -39 21 -60 21 -291 0 -282 -4
-300 -82 -370 -69 -63 -80 -65 -358 -65 -278 0 -289 2 -358 65 -78 70 -82 88
-82 368 0 275 2 286 64 355 71 79 87 82 374 82 194 0 260 -3 286 -14z m1040 0
c49 -20 112 -81 135 -130 20 -39 21 -60 21 -291 0 -282 -4 -300 -82 -370 -69
-63 -80 -65 -353 -65 -273 0 -284 2 -353 65 -78 70 -82 88 -82 368 0 275 2
286 64 355 71 78 88 82 369 82 190 0 255 -3 281 -14z m-3130 -1000 c49 -20
112 -81 135 -130 20 -39 21 -60 21 -291 0 -282 -4 -300 -82 -370 -69 -63 -80
-65 -358 -65 -278 0 -289 2 -358 65 -78 70 -82 88 -82 368 0 275 2 286 64 355
71 79 87 82 374 82 194 0 260 -3 286 -14z m1040 0 c49 -20 112 -81 135 -130
20 -39 21 -60 21 -291 0 -282 -4 -300 -82 -370 -69 -63 -80 -65 -353 -65 -273
0 -284 2 -353 65 -78 70 -82 88 -82 368 0 275 2 286 64 355 71 78 88 82 369
82 190 0 255 -3 281 -14z m1050 0 c49 -20 112 -81 135 -130 20 -39 21 -60 21
-291 0 -282 -4 -300 -82 -370 -69 -63 -80 -65 -358 -65 -278 0 -289 2 -358 65
-78 70 -82 88 -82 368 0 275 2 286 64 355 71 79 87 82 374 82 194 0 260 -3
286 -14z m1040 0 c49 -20 112 -81 135 -130 20 -39 21 -60 21 -291 0 -282 -4
-300 -82 -370 -69 -63 -80 -65 -353 -65 -273 0 -284 2 -353 65 -78 70 -82 88
-82 368 0 275 2 286 64 355 71 78 88 82 369 82 190 0 255 -3 281 -14z m-3130
-1000 c49 -20 112 -81 135 -130 20 -39 21 -60 21 -291 0 -282 -4 -300 -82
-370 -69 -63 -80 -65 -358 -65 -278 0 -289 2 -358 65 -78 70 -82 88 -82 368 0
275 2 286 64 355 71 79 87 82 374 82 194 0 260 -3 286 -14z m1040 0 c49 -20
112 -81 135 -130 20 -39 21 -60 21 -291 0 -282 -4 -300 -82 -370 -69 -63 -80
-65 -353 -65 -273 0 -284 2 -353 65 -78 70 -82 88 -82 368 0 275 2 286 64 355
71 78 88 82 369 82 190 0 255 -3 281 -14z m1050 0 c49 -20 112 -81 135 -130
20 -39 21 -60 21 -291 0 -282 -4 -300 -82 -370 -69 -63 -80 -65 -358 -65 -278
0 -289 2 -358 65 -78 70 -82 88 -82 368 0 275 2 286 64 355 71 79 87 82 374
82 194 0 260 -3 286 -14z m1040 0 c49 -20 112 -81 135 -130 20 -39 21 -60 21
-291 0 -282 -4 -300 -82 -370 -69 -63 -80 -65 -353 -65 -273 0 -284 2 -353 65
-78 70 -82 88 -82 368 0 275 2 286 64 355 71 78 88 82 369 82 190 0 255 -3
281 -14z m-3130 -1000 c49 -20 112 -81 135 -130 20 -39 21 -60 21 -291 0 -282
-4 -300 -82 -370 -69 -63 -80 -65 -358 -65 -278 0 -289 2 -358 65 -78 70 -82
88 -82 368 0 275 2 286 64 355 71 79 87 82 374 82 194 0 260 -3 286 -14z
m1040 0 c49 -20 112 -81 135 -130 20 -39 21 -60 21 -291 0 -282 -4 -300 -82
-370 -69 -63 -80 -65 -353 -65 -273 0 -284 2 -353 65 -78 70 -82 88 -82 368 0
275 2 286 64 355 71 78 88 82 369 82 190 0 255 -3 281 -14z m1050 0 c49 -20
112 -81 135 -130 20 -39 21 -60 21 -291 0 -282 -4 -300 -82 -370 -69 -63 -80
-65 -358 -65 -278 0 -289 2 -358 65 -78 70 -82 88 -82 368 0 275 2 286 64 355
71 79 87 82 374 82 194 0 260 -3 286 -14z m1040 0 c49 -20 112 -81 135 -130
20 -39 21 -60 21 -291 0 -282 -4 -300 -82 -370 -69 -63 -80 -65 -353 -65 -273
0 -284 2 -353 65 -78 70 -82 88 -82 368 0 275 2 286 64 355 71 78 88 82 369
82 190 0 255 -3 281 -14z m-2130 -1000 c49 -20 112 -81 135 -130 20 -39 21
-60 21 -291 0 -282 -4 -300 -82 -370 -75 -68 -30 -65 -858 -65 -828 0 -783 -3
-858 65 -78 70 -82 88 -82 368 0 190 3 255 14 281 20 48 80 111 129 135 41 21
52 21 795 21 623 0 758 -2 786 -14z m2130 0 c49 -20 112 -81 135 -130 20 -39
21 -60 21 -291 0 -282 -4 -300 -82 -370 -75 -68 -31 -65 -853 -65 -822 0 -778
-3 -853 65 -78 70 -82 88 -82 368 0 190 3 255 14 281 20 48 80 111 129 135 41
21 52 21 790 21 619 0 753 -2 781 -14z"/>
<path d="M492 6808 c-17 -17 -17 -1169 0 -1186 17 -17 3909 -17 3926 0 17 17
17 1169 0 1186 -17 17 -3909 17 -3926 0z"/>
<path d="M599 5392 c-39 -20 -62 -41 -84 -77 l-30 -48 0 -252 0 -252 30 -48
c22 -36 45 -57 84 -77 l53 -28 238 0 238 0 53 28 c39 20 62 41 84 77 l30 48 0
252 0 252 -30 48 c-22 36 -45 57 -84 77 l-53 28 -238 0 -238 0 -53 -28z m361
-272 c0 -5 -13 -30 -30 -56 -16 -26 -35 -71 -41 -100 -8 -35 -17 -54 -27 -54
-26 0 -5 83 46 183 2 4 -17 7 -42 7 -34 0 -46 4 -46 15 0 12 14 15 70 15 39 0
70 -4 70 -10z"/>
<path d="M1649 5392 c-39 -20 -62 -41 -84 -77 l-30 -48 0 -252 0 -252 30 -48
c22 -36 45 -57 84 -77 l53 -28 233 0 233 0 53 28 c39 20 62 41 84 77 l30 48 0
252 0 252 -30 48 c-22 36 -45 57 -84 77 l-53 28 -233 0 -233 0 -53 -28z m337
-287 c13 -21 15 -31 6 -50 -9 -20 -8 -31 6 -54 16 -29 16 -31 -4 -58 -28 -37
-83 -44 -113 -14 -25 25 -27 64 -5 86 13 12 14 19 5 28 -6 6 -11 20 -11 31 0
55 85 78 116 31z"/>
<path d="M1909 5094 c-15 -18 -2 -47 24 -52 25 -5 40 33 21 52 -19 20 -28 20
-45 0z"/>
<path d="M1906 5004 c-9 -8 -16 -22 -16 -29 0 -13 26 -45 36 -45 20 0 44 25
44 45 0 14 -8 29 -19 35 -25 13 -27 13 -45 -6z"/>
<path d="M2689 5392 c-39 -20 -62 -41 -84 -77 l-30 -48 0 -252 0 -252 30 -48
c22 -36 45 -57 84 -77 l53 -28 238 0 238 0 53 28 c39 20 62 41 84 77 l30 48 0
252 0 252 -30 48 c-22 36 -45 57 -84 77 l-53 28 -238 0 -238 0 -53 -28z m341
-289 c19 -24 21 -38 18 -92 -5 -72 -27 -101 -79 -101 -25 0 -59 30 -59 52 0
16 26 7 38 -12 7 -11 17 -20 22 -20 15 0 50 38 50 54 0 11 -9 13 -35 9 -47 -8
-75 17 -75 65 0 46 24 72 66 72 24 0 38 -8 54 -27z"/>
<path d="M2958 5099 c-25 -14 -24 -65 1 -79 44 -23 80 33 46 70 -21 23 -23 23
-47 9z"/>
<path d="M3739 5392 c-39 -20 -62 -41 -84 -77 l-30 -48 0 -252 0 -252 30 -48
c22 -36 45 -57 84 -77 l53 -28 233 0 233 0 53 28 c39 20 62 41 84 77 l30 48 0
252 0 252 -30 48 c-22 36 -45 57 -84 77 l-53 28 -233 0 -233 0 -53 -28z m301
-332 c0 -27 3 -30 31 -30 38 0 35 -24 -4 -28 -21 -3 -27 -9 -27 -28 0 -15 -6
-24 -15 -24 -9 0 -15 9 -15 25 0 21 -5 25 -30 25 -20 0 -30 5 -30 15 0 10 10
15 30 15 27 0 30 3 30 30 0 20 5 30 15 30 10 0 15 -10 15 -30z"/>
<path d="M599 4392 c-39 -20 -62 -41 -84 -77 l-30 -48 0 -252 0 -252 30 -48
c22 -36 45 -57 84 -77 l53 -28 238 0 238 0 53 28 c39 20 62 41 84 77 l30 48 0
252 0 252 -30 48 c-22 36 -45 57 -84 77 l-53 28 -238 0 -238 0 -53 -28z m331
-332 c0 -56 3 -70 15 -70 8 0 15 -4 15 -10 0 -5 -7 -10 -15 -10 -10 0 -15 -10
-15 -30 0 -20 -5 -30 -15 -30 -10 0 -15 10 -15 30 0 29 -2 30 -45 30 -27 0
-45 5 -45 12 0 19 93 148 107 148 9 0 13 -19 13 -70z"/>
<path d="M867 4034 l-27 -39 26 -3 c34 -4 36 -1 32 43 l-3 38 -28 -39z"/>
<path d="M1649 4392 c-39 -20 -62 -41 -84 -77 l-30 -48 0 -252 0 -252 30 -48
c22 -36 45 -57 84 -77 l53 -28 233 0 233 0 53 28 c39 20 62 41 84 77 l30 48 0
252 0 252 -30 48 c-22 36 -45 57 -84 77 l-53 28 -233 0 -233 0 -53 -28z m349
-274 c-3 -7 -23 -14 -45 -16 -31 -2 -42 -8 -46 -23 -4 -16 0 -19 28 -19 25 0
39 -7 55 -27 40 -51 3 -123 -61 -123 -28 0 -69 30 -69 50 0 15 30 12 36 -4 17
-44 74 -21 74 29 0 41 -28 62 -59 45 -37 -20 -44 -13 -36 38 4 26 9 50 12 55
2 4 29 7 59 7 40 0 55 -4 52 -12z"/>
<path d="M2689 4392 c-39 -20 -62 -41 -84 -77 l-30 -48 0 -252 0 -252 30 -48
c22 -36 45 -57 84 -77 l53 -28 238 0 238 0 53 28 c39 20 62 41 84 77 l30 48 0
252 0 252 -30 48 c-22 36 -45 57 -84 77 l-53 28 -238 0 -238 0 -53 -28z m333
-274 c23 -19 30 -48 12 -48 -8 0 -17 6 -20 14 -14 37 -74 17 -74 -25 0 -15 6
-17 34 -12 42 7 76 -23 76 -67 0 -55 -59 -87 -110 -60 -25 13 -43 80 -34 125
13 71 72 108 116 73z"/>
<path d="M2958 4019 c-31 -18 -13 -89 22 -89 15 0 40 31 40 50 0 18 -25 50
-38 50 -4 0 -15 -5 -24 -11z"/>
<path d="M3739 4392 c-39 -20 -62 -41 -84 -77 l-30 -48 0 -252 0 -252 30 -48
c22 -36 45 -57 84 -77 l53 -28 233 0 233 0 53 28 c39 20 62 41 84 77 l30 48 0
252 0 252 -30 48 c-22 36 -45 57 -84 77 l-53 28 -233 0 -233 0 -53 -28z m331
-407 c0 -11 -12 -15 -45 -15 -33 0 -45 4 -45 15 0 11 12 15 45 15 33 0 45 -4
45 -15z"/>
<path d="M599 3392 c-39 -20 -62 -41 -84 -77 l-30 -48 0 -252 0 -252 30 -48
c22 -36 45 -57 84 -77 l53 -28 238 0 238 0 53 28 c39 20 62 41 84 77 l30 48 0
252 0 252 -30 48 c-22 36 -45 57 -84 77 l-53 28 -238 0 -238 0 -53 -28z m321
-372 c0 -91 -3 -110 -15 -110 -12 0 -15 16 -15 80 0 44 -3 80 -6 80 -3 0 -14
-5 -25 -10 -16 -9 -19 -7 -19 8 0 10 11 24 25 30 14 6 25 16 25 22 0 5 7 10
15 10 12 0 15 -19 15 -110z"/>
<path d="M1649 3392 c-39 -20 -62 -41 -84 -77 l-30 -48 0 -252 0 -252 30 -48
c22 -36 45 -57 84 -77 l53 -28 233 0 233 0 53 28 c39 20 62 41 84 77 l30 48 0
252 0 252 -30 48 c-22 36 -45 57 -84 77 l-53 28 -233 0 -233 0 -53 -28z m333
-279 c32 -29 23 -69 -28 -123 l-47 -50 47 0 c34 0 46 -4 46 -15 0 -12 -14 -15
-70 -15 -87 0 -89 9 -15 83 59 59 68 89 33 108 -19 10 -25 8 -43 -15 -19 -23
-45 -35 -45 -20 0 11 23 49 34 56 20 13 69 8 88 -9z"/>
<path d="M2689 3392 c-39 -20 -62 -41 -84 -77 l-30 -48 0 -252 0 -252 30 -48
c22 -36 45 -57 84 -77 l53 -28 238 0 238 0 53 28 c39 20 62 41 84 77 l30 48 0
252 0 252 -30 48 c-22 36 -45 57 -84 77 l-53 28 -238 0 -238 0 -53 -28z m333
-279 c20 -18 24 -53 8 -69 -8 -8 -6 -15 5 -24 21 -18 19 -66 -5 -90 -24 -24
-77 -26 -102 -3 -22 20 -24 43 -3 43 8 0 15 -4 15 -10 0 -5 9 -14 21 -20 16
-9 25 -8 40 6 10 9 19 23 19 30 0 19 -31 46 -46 40 -25 -10 -15 21 11 32 30
14 32 37 5 52 -15 8 -24 6 -40 -10 -36 -36 -58 -16 -23 22 20 22 70 23 95 1z"/>
<path d="M3739 3392 c-39 -20 -62 -41 -84 -77 l-30 -48 0 -252 0 -252 30 -48
c22 -36 45 -57 84 -77 l53 -28 233 0 233 0 53 28 c39 20 62 41 84 77 l30 48 0
252 0 252 -30 48 c-22 36 -45 57 -84 77 l-53 28 -233 0 -233 0 -53 -28z m294
-278 c-5 -13 -2 -15 15 -9 25 7 31 -12 7 -21 -11 -5 -13 -10 -5 -19 13 -16 0
-28 -16 -14 -8 7 -14 7 -19 -1 -11 -18 -28 -11 -22 9 3 12 -1 22 -10 25 -8 3
-11 11 -8 17 4 6 13 8 21 5 8 -3 14 1 14 9 0 8 7 15 15 15 9 0 12 -6 8 -16z"/>
<path d="M599 2392 c-39 -20 -62 -41 -84 -77 l-30 -48 0 -252 0 -252 30 -48
c22 -36 45 -57 84 -77 l53 -28 238 0 238 0 53 28 c39 20 62 41 84 77 l30 48 0
252 0 252 -30 48 c-22 36 -45 57 -84 77 l-53 28 -238 0 -238 0 -53 -28z m337
-283 c27 -30 27 -148 0 -178 -24 -27 -70 -27 -96 -1 -16 16 -20 33 -20 90 0
57 4 74 20 90 26 26 72 26 96 -1z"/>
<path d="M865 2094 c-21 -21 -21 -127 1 -148 11 -12 20 -13 34 -6 23 12 30 32
30 81 0 67 -33 104 -65 73z"/>
<path d="M1649 2392 c-39 -20 -62 -41 -84 -77 l-30 -48 0 -252 0 -252 30 -48
c22 -36 45 -57 84 -77 l53 -28 233 0 233 0 53 28 c39 20 62 41 84 77 l30 48 0
252 0 252 -30 48 c-22 36 -45 57 -84 77 l-53 28 -233 0 -233 0 -53 -28z m301
-467 c0 -8 -9 -15 -20 -15 -11 0 -20 7 -20 15 0 8 9 15 20 15 11 0 20 -7 20
-15z"/>
<path d="M2689 2392 c-39 -20 -62 -41 -84 -77 l-30 -48 0 -252 0 -252 30 -48
c22 -36 45 -57 84 -77 l53 -28 238 0 238 0 53 28 c39 20 62 41 84 77 l30 48 0
252 0 252 -30 48 c-22 36 -45 57 -84 77 l-53 28 -238 0 -238 0 -53 -28z m361
-347 c0 -13 -12 -15 -72 -13 -46 2 -73 7 -76 16 -3 9 16 12 72 12 62 0 76 -3
76 -15z m0 -70 c0 -13 -12 -15 -72 -13 -46 2 -73 7 -76 16 -3 9 16 12 72 12
62 0 76 -3 76 -15z"/>
<path d="M3739 2392 c-39 -20 -62 -41 -84 -77 l-30 -48 0 -252 0 -252 30 -48
c22 -36 45 -57 84 -77 l53 -28 233 0 233 0 53 28 c39 20 62 41 84 77 l30 48 0
252 0 252 -30 48 c-22 36 -45 57 -84 77 l-53 28 -233 0 -233 0 -53 -28z m321
-273 c0 -36 -56 -209 -68 -209 -8 0 -11 7 -8 18 2 9 7 26 10 37 23 91 48 165
56 165 6 0 10 -5 10 -11z"/>
<path d="M599 1392 c-39 -20 -62 -41 -84 -77 l-30 -48 0 -252 0 -252 30 -48
c22 -36 45 -57 84 -77 l53 -28 738 0 738 0 53 28 c39 20 62 41 84 77 l30 48 0
252 0 252 -30 48 c-22 36 -45 57 -84 77 l-53 28 -738 0 -738 0 -53 -28z m286
-287 c14 -13 25 -29 25 -35 0 -18 -38 -11 -45 9 -13 42 -88 31 -106 -16 -12
-33 -5 -91 13 -109 30 -28 57 -26 89 5 34 34 49 39 49 16 0 -31 -47 -65 -89
-65 -62 0 -93 32 -99 103 -4 52 -2 58 26 87 40 40 101 42 137 5z m85 -85 c0
-91 -3 -110 -15 -110 -12 0 -15 19 -15 110 0 91 3 110 15 110 12 0 15 -19 15
-110z m590 15 l0 -95 50 0 c38 0 50 -4 50 -15 0 -12 -14 -15 -70 -15 l-70 0 0
110 c0 103 1 110 20 110 19 0 20 -7 20 -95z m496 35 c8 0 14 -4 14 -10 0 -5
-7 -10 -15 -10 -12 0 -15 -13 -15 -55 0 -40 4 -57 15 -61 23 -9 18 -24 -9 -24
-29 0 -36 16 -36 85 0 33 -5 56 -12 59 -10 5 -10 7 0 12 6 3 12 14 12 24 0 28
24 31 28 3 2 -12 10 -23 18 -23z m-938 -17 c11 -10 23 -30 26 -45 l6 -28 -60
0 c-62 0 -71 -7 -44 -34 19 -20 25 -20 50 -1 22 16 44 19 44 6 0 -20 -33 -41
-66 -41 -47 0 -74 29 -74 80 0 70 68 106 118 63z m170 5 c5 -7 12 -43 14 -79
l4 -65 -51 -1 c-62 -2 -81 3 -89 24 -11 28 19 60 63 67 26 4 41 12 41 20 0 23
-39 30 -59 12 -34 -30 -57 -13 -25 18 19 19 87 21 102 4z m132 -5 c0 -9 -6
-13 -14 -10 -24 9 -36 -15 -36 -75 0 -45 -3 -58 -15 -58 -12 0 -15 15 -15 79
l0 79 40 0 c30 1 40 -3 40 -15z m384 1 c11 -11 16 -34 16 -78 l0 -62 -57 -2
c-63 -2 -83 9 -83 44 0 26 18 38 73 48 41 8 47 20 18 36 -21 10 -51 4 -51 -11
0 -5 -7 -9 -15 -9 -21 0 -19 27 3 39 26 16 79 13 96 -5z m154 4 c15 -15 16
-38 1 -38 -6 0 -17 7 -25 15 -18 17 -24 18 -43 6 -19 -13 -7 -27 30 -35 58
-11 75 -42 42 -78 -18 -20 -64 -24 -94 -8 -23 13 -26 40 -4 40 8 0 15 -4 15
-9 0 -16 40 -23 55 -11 20 17 11 28 -35 40 -74 20 -62 90 15 90 17 0 36 -5 43
-12z"/>
<path d="M1046 1034 c-25 -25 -19 -34 24 -34 44 0 55 21 21 40 -25 13 -27 13
-45 -6z"/>
<path d="M1213 973 c-18 -7 -16 -30 3 -37 20 -8 54 11 54 29 0 15 -31 19 -57
8z"/>
<path d="M1728 973 c-23 -6 -23 -29 -2 -37 18 -7 64 18 64 34 0 10 -30 12 -62
3z"/>
<path d="M2739 1392 c-39 -20 -62 -41 -84 -77 l-30 -48 0 -252 0 -252 30 -48
c22 -36 45 -57 84 -77 l53 -28 733 0 733 0 53 28 c39 20 62 41 84 77 l30 48 0
252 0 252 -30 48 c-22 36 -45 57 -84 77 l-53 28 -733 0 -733 0 -53 -28z m406
-287 c14 -13 25 -29 25 -35 0 -18 -38 -11 -45 9 -13 42 -88 31 -106 -16 -12
-33 -5 -91 13 -109 30 -28 57 -26 89 5 34 34 49 39 49 16 0 -31 -47 -65 -89
-65 -62 0 -93 32 -99 103 -4 52 -2 58 26 87 40 40 101 42 137 5z m85 -85 c0
-91 -3 -110 -15 -110 -12 0 -15 19 -15 110 0 91 3 110 15 110 12 0 15 -19 15
-110z m675 9 c22 -56 42 -106 43 -110 2 -5 -5 -9 -15 -9 -12 0 -23 11 -30 30
-10 27 -15 30 -56 30 -41 0 -46 -3 -56 -30 -5 -16 -17 -30 -25 -30 -9 0 -16 2
-16 4 0 4 44 125 69 189 21 54 43 34 86 -74z m95 -9 c0 -91 -3 -110 -15 -110
-12 0 -15 19 -15 110 0 91 3 110 15 110 12 0 15 -19 15 -110z m60 0 c0 -91 -3
-110 -15 -110 -12 0 -15 19 -15 110 0 91 3 110 15 110 12 0 15 -19 15 -110z
m-682 33 c11 -10 23 -30 26 -45 l6 -28 -60 0 c-62 0 -71 -7 -44 -34 19 -20 25
-20 50 -1 22 16 44 19 44 6 0 -20 -33 -41 -66 -41 -47 0 -74 29 -74 80 0 70
68 106 118 63z m170 5 c5 -7 12 -43 14 -79 l4 -65 -51 -1 c-62 -2 -81 3 -89
24 -11 28 19 60 63 67 26 4 41 12 41 20 0 23 -39 30 -59 12 -34 -30 -57 -13
-25 18 19 19 87 21 102 4z m132 -5 c0 -9 -6 -13 -14 -10 -24 9 -36 -15 -36
-75 0 -45 -3 -58 -15 -58 -12 0 -15 15 -15 79 l0 79 40 0 c30 1 40 -3 40 -15z"/>
<path d="M3829 1045 l-17 -45 34 0 c38 0 39 1 16 53 l-17 38 -16 -46z"/>
<path d="M3306 1034 c-25 -25 -19 -34 24 -34 44 0 55 21 21 40 -25 13 -27 13
-45 -6z"/>
<path d="M3473 973 c-18 -7 -16 -30 3 -37 20 -8 54 11 54 29 0 15 -31 19 -57
8z"/>
</g>
</svg>
