<?xml version="1.0" standalone="no"?>
<!DOCTYPE svg PUBLIC "-//W3C//DTD SVG 20010904//EN"
 "http://www.w3.org/TR/2001/REC-SVG-20010904/DTD/svg10.dtd">
<svg version="1.0" xmlns="http://www.w3.org/2000/svg"
 width="525.000000pt" height="519.000000pt" viewBox="0 0 525.000000 519.000000"
 preserveAspectRatio="xMidYMid meet">

<g transform="translate(0.000000,519.000000) scale(0.100000,-0.100000)"
fill="#000000" stroke="none">
<path d="M0 2595 l0 -2595 2625 0 2625 0 0 2595 0 2595 -2625 0 -2625 0 0
-2595z m5190 2525 c20 -20 20 -33 20 -2530 0 -2497 0 -2510 -20 -2530 -20 -20
-33 -20 -2570 -20 -2537 0 -2550 0 -2570 20 -20 20 -20 33 -20 2530 0 2497 0
2510 20 2530 20 20 33 20 2570 20 2537 0 2550 0 2570 -20z"/>
<path d="M72 5098 c-17 -17 -17 -4999 0 -5016 17 -17 5079 -17 5096 0 17 17
17 4999 0 5016 -17 17 -5079 17 -5096 0z m405 -128 c50 -30 63 -66 63 -172 0
-150 -36 -188 -180 -188 -144 0 -180 38 -180 188 0 154 35 192 180 192 67 0
92 -4 117 -20z m4510 0 c50 -30 63 -66 63 -172 0 -150 -36 -188 -180 -188
-144 0 -180 38 -180 188 0 154 35 192 180 192 67 0 92 -4 117 -20z m-2507
-147 c8 -24 17 -43 20 -43 3 0 12 19 20 43 12 34 20 43 43 45 l27 3 0 -80 c0
-74 -2 -81 -20 -81 -17 0 -20 7 -21 48 l-1 47 -16 -47 c-21 -66 -44 -64 -71 5
l-20 52 0 -52 c-1 -46 -4 -53 -21 -53 -18 0 -20 7 -20 81 l0 80 33 -3 c28 -3
34 -9 47 -45z m230 -12 c5 -11 10 -38 10 -60 l0 -40 -52 2 c-52 2 -53 3 -53
32 0 25 5 32 34 41 21 7 29 14 22 18 -6 4 -20 4 -31 1 -14 -5 -20 -2 -20 9 0
25 76 22 90 -3z m67 -13 l10 -33 13 33 c8 20 19 32 31 32 23 0 23 6 -2 -59
-35 -92 -47 -111 -74 -111 -30 0 -32 16 -5 38 19 17 19 18 -5 75 l-24 57 23 0
c17 0 26 -8 33 -32z m-1976 -453 c56 -30 69 -66 69 -200 0 -101 -3 -125 -20
-152 -36 -60 -52 -63 -327 -63 -228 0 -251 2 -280 20 -53 32 -63 64 -63 195 0
131 10 163 63 195 29 18 52 20 280 20 204 0 253 -3 278 -15z m690 0 c56 -30
69 -66 69 -200 0 -101 -3 -125 -20 -152 -36 -60 -53 -63 -322 -63 -223 0 -246
2 -275 20 -53 32 -63 64 -63 195 0 131 10 163 63 195 29 18 52 20 275 20 200
0 248 -3 273 -15z m700 0 c56 -30 69 -66 69 -200 0 -101 -3 -125 -20 -152 -36
-60 -53 -63 -322 -63 -223 0 -246 2 -275 20 -53 32 -63 64 -63 195 0 131 10
163 63 195 29 18 52 20 275 20 200 0 248 -3 273 -15z m700 0 c56 -30 69 -66
69 -200 0 -101 -3 -125 -20 -152 -36 -60 -52 -63 -327 -63 -228 0 -251 2 -280
20 -53 32 -63 64 -63 195 0 131 10 163 63 195 29 18 52 20 280 20 204 0 253
-3 278 -15z m700 0 c56 -30 69 -66 69 -200 0 -101 -3 -125 -20 -152 -36 -60
-52 -63 -327 -63 -228 0 -251 2 -280 20 -53 32 -63 64 -63 195 0 131 10 163
63 195 29 18 52 20 280 20 204 0 253 -3 278 -15z m690 0 c56 -30 69 -66 69
-200 0 -101 -3 -125 -20 -152 -36 -60 -53 -63 -322 -63 -223 0 -246 2 -275 20
-53 32 -63 64 -63 195 0 131 10 163 63 195 29 18 52 20 275 20 200 0 248 -3
273 -15z m700 0 c56 -30 69 -66 69 -200 0 -101 -3 -125 -20 -152 -36 -60 -53
-63 -322 -63 -223 0 -246 2 -275 20 -53 32 -63 64 -63 195 0 131 10 163 63
195 29 18 52 20 275 20 200 0 248 -3 273 -15z m-3550 -760 c62 -32 69 -60 69
-263 0 -204 -6 -227 -63 -262 -29 -18 -51 -20 -217 -20 -206 0 -232 7 -265 69
-22 44 -22 378 0 422 32 62 60 69 263 69 146 0 189 -3 213 -15z m700 0 c62
-32 69 -60 69 -263 0 -204 -6 -227 -63 -262 -29 -18 -51 -20 -217 -20 -166 0
-188 2 -217 20 -57 34 -63 59 -63 260 0 201 6 226 63 260 29 18 51 20 215 20
146 0 189 -3 213 -15z m700 0 c62 -32 69 -60 69 -263 0 -204 -6 -227 -63 -262
-29 -18 -51 -20 -217 -20 -166 0 -188 2 -217 20 -57 34 -63 59 -63 260 0 201
6 226 63 260 29 18 51 20 215 20 146 0 189 -3 213 -15z m690 0 c62 -32 69 -60
69 -263 0 -204 -6 -227 -63 -262 -29 -18 -51 -20 -217 -20 -166 0 -188 2 -217
20 -57 34 -63 59 -63 260 0 201 6 226 63 260 29 18 51 20 215 20 146 0 189 -3
213 -15z m700 0 c62 -32 69 -60 69 -263 0 -204 -6 -227 -63 -262 -29 -18 -51
-20 -217 -20 -166 0 -188 2 -217 20 -57 34 -63 59 -63 260 0 201 6 226 63 260
29 18 51 20 215 20 146 0 189 -3 213 -15z m700 0 c62 -32 69 -60 69 -263 0
-204 -6 -227 -63 -262 -29 -18 -51 -20 -217 -20 -166 0 -188 2 -217 20 -57 34
-63 59 -63 260 0 201 6 226 63 260 29 18 51 20 215 20 146 0 189 -3 213 -15z
m-4190 -690 c62 -32 69 -60 69 -263 0 -204 -6 -227 -63 -262 -29 -18 -51 -20
-217 -20 -206 0 -232 7 -265 69 -22 44 -22 378 0 422 32 62 60 69 263 69 146
0 189 -3 213 -15z m700 0 c62 -32 69 -60 69 -263 0 -204 -6 -227 -63 -262 -29
-18 -51 -20 -217 -20 -206 0 -232 7 -265 69 -22 44 -22 378 0 422 32 62 60 69
263 69 146 0 189 -3 213 -15z m700 0 c62 -32 69 -60 69 -263 0 -204 -6 -227
-63 -262 -29 -18 -51 -20 -217 -20 -166 0 -188 2 -217 20 -57 34 -63 59 -63
260 0 201 6 226 63 260 29 18 51 20 215 20 146 0 189 -3 213 -15z m700 0 c62
-32 69 -60 69 -263 0 -204 -6 -227 -63 -262 -29 -18 -51 -20 -217 -20 -166 0
-188 2 -217 20 -57 34 -63 59 -63 260 0 201 6 226 63 260 29 18 51 20 215 20
146 0 189 -3 213 -15z m690 0 c62 -32 69 -60 69 -263 0 -204 -6 -227 -63 -262
-29 -18 -51 -20 -217 -20 -166 0 -188 2 -217 20 -57 34 -63 59 -63 260 0 201
6 226 63 260 29 18 51 20 215 20 146 0 189 -3 213 -15z m700 0 c62 -32 69 -60
69 -263 0 -204 -6 -227 -63 -262 -29 -18 -51 -20 -217 -20 -166 0 -188 2 -217
20 -57 34 -63 59 -63 260 0 201 6 226 63 260 29 18 51 20 215 20 146 0 189 -3
213 -15z m700 0 c62 -32 69 -60 69 -263 0 -204 -6 -227 -63 -262 -29 -18 -51
-20 -217 -20 -166 0 -188 2 -217 20 -57 34 -63 59 -63 260 0 201 6 226 63 260
29 18 51 20 215 20 146 0 189 -3 213 -15z m-4190 -700 c62 -32 69 -60 69 -263
0 -204 -6 -227 -63 -262 -29 -18 -51 -20 -217 -20 -206 0 -232 7 -265 69 -22
44 -22 378 0 422 32 62 60 69 263 69 146 0 189 -3 213 -15z m700 0 c62 -32 69
-60 69 -263 0 -204 -6 -227 -63 -262 -29 -18 -51 -20 -217 -20 -206 0 -232 7
-265 69 -22 44 -22 378 0 422 32 62 60 69 263 69 146 0 189 -3 213 -15z m700
0 c62 -32 69 -60 69 -263 0 -204 -6 -227 -63 -262 -29 -18 -51 -20 -217 -20
-166 0 -188 2 -217 20 -57 34 -63 59 -63 260 0 201 6 226 63 260 29 18 51 20
215 20 146 0 189 -3 213 -15z m700 0 c62 -32 69 -60 69 -263 0 -204 -6 -227
-63 -262 -29 -18 -51 -20 -217 -20 -166 0 -188 2 -217 20 -57 34 -63 59 -63
260 0 201 6 226 63 260 29 18 51 20 215 20 146 0 189 -3 213 -15z m690 0 c62
-32 69 -60 69 -263 0 -204 -6 -227 -63 -262 -29 -18 -51 -20 -217 -20 -166 0
-188 2 -217 20 -57 34 -63 59 -63 260 0 201 6 226 63 260 29 18 51 20 215 20
146 0 189 -3 213 -15z m700 0 c62 -32 69 -60 69 -263 0 -204 -6 -227 -63 -262
-29 -18 -51 -20 -217 -20 -166 0 -188 2 -217 20 -57 34 -63 59 -63 260 0 201
6 226 63 260 29 18 51 20 215 20 146 0 189 -3 213 -15z m700 0 c62 -32 69 -60
69 -263 0 -204 -6 -227 -63 -262 -29 -18 -51 -20 -217 -20 -166 0 -188 2 -217
20 -57 34 -63 59 -63 260 0 201 6 226 63 260 29 18 51 20 215 20 146 0 189 -3
213 -15z m-4190 -700 c62 -32 69 -60 69 -263 0 -204 -6 -227 -63 -262 -29 -18
-51 -20 -217 -20 -206 0 -232 7 -265 69 -22 44 -22 378 0 422 32 62 60 69 263
69 146 0 189 -3 213 -15z m700 0 c62 -32 69 -60 69 -263 0 -204 -6 -227 -63
-262 -29 -18 -51 -20 -217 -20 -206 0 -232 7 -265 69 -22 44 -22 378 0 422 32
62 60 69 263 69 146 0 189 -3 213 -15z m700 0 c62 -32 69 -60 69 -263 0 -204
-6 -227 -63 -262 -29 -18 -51 -20 -217 -20 -166 0 -188 2 -217 20 -57 34 -63
59 -63 260 0 201 6 226 63 260 29 18 51 20 215 20 146 0 189 -3 213 -15z m700
0 c62 -32 69 -60 69 -263 0 -204 -6 -227 -63 -262 -29 -18 -51 -20 -217 -20
-206 0 -232 7 -265 69 -22 44 -22 378 0 422 32 62 60 69 263 69 146 0 189 -3
213 -15z m690 0 c62 -32 69 -60 69 -263 0 -204 -6 -227 -63 -262 -29 -18 -51
-20 -217 -20 -166 0 -188 2 -217 20 -57 34 -63 59 -63 260 0 201 6 226 63 260
29 18 51 20 215 20 146 0 189 -3 213 -15z m700 0 c62 -32 69 -60 69 -263 0
-204 -6 -227 -63 -262 -29 -18 -51 -20 -217 -20 -166 0 -188 2 -217 20 -57 34
-63 59 -63 260 0 201 6 226 63 260 29 18 51 20 215 20 146 0 189 -3 213 -15z
m700 0 c62 -32 69 -60 69 -263 0 -204 -6 -227 -63 -262 -29 -18 -51 -20 -217
-20 -166 0 -188 2 -217 20 -57 34 -63 59 -63 260 0 201 6 226 63 260 29 18 51
20 215 20 146 0 189 -3 213 -15z m-4190 -700 c62 -32 69 -60 69 -263 0 -204
-6 -227 -63 -262 -29 -18 -51 -20 -217 -20 -206 0 -232 7 -265 69 -22 44 -22
378 0 422 32 62 60 69 263 69 146 0 189 -3 213 -15z m700 0 c62 -32 69 -60 69
-263 0 -204 -6 -227 -63 -262 -29 -18 -51 -20 -217 -20 -206 0 -232 7 -265 69
-22 44 -22 378 0 422 32 62 60 69 263 69 146 0 189 -3 213 -15z m700 0 c62
-32 69 -60 69 -263 0 -204 -6 -227 -63 -262 -29 -18 -51 -20 -217 -20 -166 0
-188 2 -217 20 -57 34 -63 59 -63 260 0 201 6 226 63 260 29 18 51 20 215 20
146 0 189 -3 213 -15z m700 0 c62 -32 69 -60 69 -263 0 -204 -6 -227 -63 -262
-29 -18 -51 -20 -217 -20 -166 0 -188 2 -217 20 -57 34 -63 59 -63 260 0 201
6 226 63 260 29 18 51 20 215 20 146 0 189 -3 213 -15z"/>
<path d="M239 4931 c-28 -29 -29 -32 -29 -131 0 -99 1 -102 29 -131 28 -28 33
-29 121 -29 88 0 93 1 121 29 28 29 29 32 29 131 0 99 -1 102 -29 131 -28 28
-33 29 -121 29 -88 0 -93 -1 -121 -29z m181 -72 c0 -6 -18 -18 -40 -26 -22 -9
-40 -19 -40 -23 0 -4 18 -14 40 -23 22 -8 40 -20 40 -26 0 -15 -2 -14 -65 13
-30 14 -55 30 -55 36 0 6 24 22 53 35 60 27 67 29 67 14z"/>
<path d="M4749 4931 c-28 -29 -29 -32 -29 -131 0 -99 1 -102 29 -131 28 -28
33 -29 121 -29 88 0 93 1 121 29 28 29 29 32 29 131 0 99 -1 102 -29 131 -28
28 -33 29 -121 29 -88 0 -93 -1 -121 -29z m129 -85 c33 -13 52 -26 52 -36 0
-10 -19 -23 -52 -36 -29 -10 -56 -20 -60 -22 -4 -2 -8 2 -8 8 0 6 18 19 40 27
22 9 40 19 40 23 0 4 -18 14 -40 23 -22 8 -40 21 -40 27 0 6 4 10 8 8 4 -1 31
-12 60 -22z"/>
<path d="M2655 4759 c-4 -6 -5 -13 -2 -16 7 -7 27 6 27 18 0 12 -17 12 -25 -2z"/>
<path d="M239 4301 c-29 -29 -29 -29 -29 -156 0 -127 0 -127 29 -156 l29 -29
257 0 257 0 29 29 c29 29 29 29 29 156 0 127 0 127 -29 156 l-29 29 -257 0
-257 0 -29 -29z m221 -110 c0 -4 -11 -6 -25 -3 -20 3 -25 0 -25 -16 0 -12 9
-23 20 -27 28 -9 45 -42 29 -61 -12 -15 -69 -20 -69 -5 0 4 11 6 24 4 39 -8
43 17 7 46 -32 27 -41 55 -18 64 20 9 57 8 57 -2z m42 -68 c2 -26 8 -38 18
-38 10 0 16 12 18 38 5 53 22 46 22 -9 l0 -45 -37 3 c-37 3 -38 4 -41 46 -2
23 1 42 7 42 5 0 11 -17 13 -37z m156 -10 c2 -26 -1 -43 -7 -43 -6 0 -11 18
-11 41 0 33 -3 40 -17 37 -13 -2 -19 -14 -21 -41 -4 -52 -22 -47 -22 7 l0 44
38 -1 c36 -2 37 -3 40 -44z"/>
<path d="M939 4301 c-29 -29 -29 -29 -29 -156 0 -127 0 -127 29 -156 l29 -29
252 0 252 0 29 29 c29 29 29 29 29 156 0 127 0 127 -29 156 l-29 29 -252 0
-252 0 -29 -29z m162 -148 l21 -48 20 48 c30 69 48 62 48 -18 0 -37 -4 -65
-10 -65 -5 0 -10 19 -11 43 l0 42 -22 -42 c-11 -24 -24 -43 -27 -43 -4 0 -15
19 -25 43 l-19 42 -4 -42 c-5 -67 -22 -50 -22 22 0 81 19 87 51 18z m190 -14
c16 -30 -3 -69 -33 -69 -34 0 -50 15 -50 45 0 46 61 64 83 24z m97 -26 c2 -26
-1 -43 -7 -43 -6 0 -11 18 -11 41 0 33 -3 40 -17 37 -13 -2 -19 -14 -21 -41
-4 -52 -22 -47 -22 7 l0 44 38 -1 c36 -2 37 -3 40 -44z"/>
<path d="M1229 4134 c-9 -11 -10 -20 -2 -32 24 -38 62 -15 48 29 -8 23 -28 24
-46 3z"/>
<path d="M1639 4301 c-29 -29 -29 -29 -29 -156 0 -127 0 -127 29 -156 l29 -29
252 0 252 0 29 29 c29 29 29 29 29 156 0 127 0 127 -29 156 l-29 29 -252 0
-252 0 -29 -29z m219 -108 c-15 -4 -18 -16 -18 -64 0 -33 -4 -59 -10 -59 -6 0
-10 26 -10 59 0 54 -2 60 -22 64 -13 2 0 4 27 4 28 1 42 -1 33 -4z m44 -70 c2
-26 8 -38 18 -38 10 0 16 12 18 38 5 53 22 46 22 -9 l0 -45 -37 3 c-37 3 -38
4 -41 46 -2 23 1 42 7 42 5 0 11 -17 13 -37z m146 25 c23 -23 13 -38 -24 -38
-32 0 -35 -2 -23 -16 7 -8 21 -13 31 -11 10 3 18 1 18 -4 0 -5 -14 -9 -30 -9
-23 0 -33 6 -39 23 -18 49 32 90 67 55z"/>
<path d="M2000 4135 c-11 -13 -9 -15 15 -15 16 0 25 5 23 12 -7 19 -24 20 -38
3z"/>
<path d="M2329 4301 c-29 -29 -29 -29 -29 -156 0 -127 0 -127 29 -156 l29 -29
257 0 257 0 29 29 c29 29 29 29 29 156 0 127 0 127 -29 156 l-29 29 -257 0
-257 0 -29 -29z m451 -161 l0 -70 -35 0 c-28 0 -37 5 -44 22 -13 34 -1 58 30
65 22 4 29 11 29 29 0 13 5 24 10 24 6 0 10 -30 10 -70z m-305 9 c12 -48 19
-44 30 14 10 51 28 47 44 -10 l14 -48 11 44 c6 25 17 46 23 48 8 3 6 -15 -5
-58 -21 -79 -38 -85 -54 -22 l-12 48 -14 -48 c-16 -57 -32 -57 -49 3 -7 23
-15 52 -19 63 -4 13 -2 18 7 15 7 -2 18 -24 24 -49z m203 -16 c3 -20 -1 -23
-28 -23 -21 0 -30 -4 -27 -12 2 -7 16 -13 30 -13 15 1 23 -3 18 -8 -13 -13
-53 -4 -64 15 -8 12 -7 24 1 43 16 34 65 33 70 -2z"/>
<path d="M2720 4134 c-10 -11 -11 -20 -3 -32 17 -27 38 -20 38 12 0 34 -16 44
-35 20z"/>
<path d="M2626 4135 c-4 -10 1 -15 14 -15 11 0 20 7 20 15 0 8 -6 15 -14 15
-8 0 -16 -7 -20 -15z"/>
<path d="M3029 4301 c-29 -29 -29 -29 -29 -156 0 -127 0 -127 29 -156 l29 -29
257 0 257 0 29 29 c29 29 29 29 29 156 0 127 0 127 -29 156 l-29 29 -257 0
-257 0 -29 -29z m261 -119 c0 -24 4 -28 28 -27 25 0 27 -3 30 -42 2 -26 -1
-43 -7 -43 -6 0 -11 18 -11 41 0 33 -3 40 -17 37 -13 -2 -19 -14 -21 -41 -5
-65 -22 -40 -22 33 0 40 4 70 10 70 6 0 10 -13 10 -28z m-42 11 c-15 -4 -18
-16 -18 -64 0 -33 -4 -59 -10 -59 -6 0 -10 26 -10 59 0 54 -2 60 -22 64 -13 2
0 4 27 4 28 1 42 -1 33 -4z m144 -70 c2 -26 8 -38 18 -38 10 0 16 12 18 38 5
53 22 46 22 -9 l0 -45 -37 3 c-37 3 -38 4 -41 46 -2 23 1 42 7 42 5 0 11 -17
13 -37z"/>
<path d="M3729 4301 c-29 -29 -29 -29 -29 -156 0 -127 0 -127 29 -156 l29 -29
252 0 252 0 29 29 c29 29 29 29 29 156 0 127 0 127 -29 156 l-29 29 -252 0
-252 0 -29 -29z m249 -108 c-22 -3 -28 -10 -28 -29 0 -18 6 -24 23 -25 l22 -2
-22 -4 c-18 -3 -23 -11 -23 -34 0 -16 -4 -29 -10 -29 -6 0 -10 28 -10 65 l0
65 38 -1 c30 -2 32 -3 10 -6z m122 -3 c0 -5 -4 -10 -10 -10 -5 0 -10 5 -10 10
0 6 5 10 10 10 6 0 10 -4 10 -10z m-53 -42 c-11 -6 -17 -22 -17 -43 0 -19 -4
-35 -10 -35 -5 0 -10 20 -10 44 0 40 2 44 27 44 21 0 23 -2 10 -10z m53 -33
c0 -25 -4 -45 -10 -45 -5 0 -10 20 -10 45 0 25 5 45 10 45 6 0 10 -20 10 -45z"/>
<path d="M4429 4301 c-29 -29 -29 -29 -29 -156 0 -127 0 -127 29 -156 l29 -29
252 0 252 0 29 29 c29 29 29 29 29 156 0 127 0 127 -29 156 l-29 29 -252 0
-252 0 -29 -29z m241 -110 c0 -4 -11 -6 -25 -3 -20 3 -25 0 -25 -16 0 -12 9
-23 20 -27 28 -9 45 -42 29 -61 -12 -15 -69 -20 -69 -5 0 4 11 6 24 4 39 -8
43 17 7 46 -32 27 -41 55 -18 64 20 9 57 8 57 -2z m148 -32 c15 -1 15 -2 0 -6
-12 -3 -18 -14 -18 -33 0 -17 7 -33 18 -39 15 -9 15 -10 -5 -11 -20 0 -23 5
-23 40 0 25 -5 40 -12 41 -10 0 -10 2 0 6 6 2 13 12 13 21 1 15 2 15 6 0 2
-10 12 -19 21 -19z m-60 -47 l3 -43 -33 3 c-25 2 -34 8 -36 25 -3 17 3 24 22
29 14 3 26 11 26 16 0 6 -11 7 -26 4 -17 -5 -23 -3 -19 4 4 6 19 10 33 8 24
-3 27 -8 30 -46z"/>
<path d="M4713 4105 c-3 -9 -3 -18 0 -21 9 -9 27 6 27 22 0 19 -19 18 -27 -1z"/>
<path d="M999 3541 l-29 -29 0 -192 0 -192 29 -29 29 -29 192 0 192 0 29 29
29 29 0 192 0 192 -29 29 -29 29 -192 0 -192 0 -29 -29z m241 -231 c0 -40 -4
-70 -10 -70 -5 0 -10 24 -10 54 0 51 -1 54 -22 49 l-23 -5 24 21 c13 12 27 21
32 21 5 0 9 -31 9 -70z"/>
<path d="M1699 3541 l-29 -29 0 -192 0 -192 29 -29 29 -29 192 0 192 0 29 29
29 29 0 192 0 192 -29 29 -29 29 -192 0 -192 0 -29 -29z m249 -173 c20 -20 14
-45 -18 -71 -16 -14 -30 -28 -30 -31 0 -3 14 -6 30 -6 17 0 30 -4 30 -10 0 -5
-20 -10 -45 -10 -25 0 -45 5 -45 10 0 6 16 27 35 47 40 41 40 58 2 58 -27 -1
-33 5 -20 18 11 11 48 8 61 -5z"/>
<path d="M2399 3541 l-29 -29 0 -192 0 -192 29 -29 29 -29 192 0 192 0 29 29
29 29 0 192 0 192 -29 29 -29 29 -192 0 -192 0 -29 -29z m248 -177 c3 -9 2
-24 -4 -33 -7 -12 -6 -20 3 -29 18 -17 18 -27 -2 -46 -17 -18 -74 -22 -74 -6
0 6 14 10 30 10 23 0 30 4 30 20 0 13 -7 20 -19 20 -29 0 -35 18 -9 22 13 2
24 11 26 21 3 13 -3 17 -28 17 -18 0 -29 4 -25 10 10 17 65 12 72 -6z"/>
<path d="M3089 3541 l-29 -29 0 -192 0 -192 29 -29 29 -29 192 0 192 0 29 29
29 29 0 192 0 192 -29 29 -29 29 -192 0 -192 0 -29 -29z m251 -205 c0 -26 5
-47 13 -50 10 -5 10 -7 0 -12 -7 -3 -13 -12 -13 -20 0 -8 -4 -14 -10 -14 -5 0
-10 7 -10 15 0 10 -10 15 -30 15 -16 0 -30 4 -30 10 0 13 62 100 72 100 4 0 8
-20 8 -44z"/>
<path d="M3297 3315 c-17 -24 -17 -25 3 -25 15 0 20 6 20 25 0 30 -1 30 -23 0z"/>
<path d="M3789 3541 l-29 -29 0 -192 0 -192 29 -29 29 -29 192 0 192 0 29 29
29 29 0 192 0 192 -29 29 -29 29 -192 0 -192 0 -29 -29z m256 -171 c-3 -5 -17
-10 -31 -10 -15 0 -24 -6 -24 -15 0 -8 8 -15 18 -15 24 0 42 -19 42 -45 0 -29
-19 -45 -52 -45 -36 0 -37 18 0 22 19 2 27 9 27 23 0 14 -8 21 -27 23 -19 2
-28 9 -28 22 0 38 12 50 47 50 20 0 32 -4 28 -10z"/>
<path d="M4489 3541 l-29 -29 0 -192 0 -192 29 -29 29 -29 192 0 192 0 29 29
29 29 0 192 0 192 -29 29 -29 29 -192 0 -192 0 -29 -29z m261 -171 c0 -5 -11
-10 -25 -10 -13 0 -29 -8 -34 -18 -9 -16 -6 -18 19 -14 39 6 59 -28 35 -64
-43 -67 -109 11 -71 85 13 24 23 31 46 31 17 0 30 -4 30 -10z"/>
<path d="M4686 3301 c-10 -16 5 -41 25 -41 14 0 19 7 19 25 0 18 -5 25 -19 25
-11 0 -22 -4 -25 -9z"/>
<path d="M299 2851 l-29 -29 0 -192 0 -192 29 -29 29 -29 192 0 192 0 29 29
29 29 0 192 0 192 -29 29 -29 29 -192 0 -192 0 -29 -29z m268 -183 c-4 -7 -16
-39 -29 -70 -13 -32 -26 -58 -30 -58 -13 0 -9 23 12 69 11 24 20 45 20 47 0 2
-13 4 -30 4 -16 0 -30 5 -30 10 0 6 21 10 46 10 33 0 45 -4 41 -12z"/>
<path d="M999 2851 l-29 -29 0 -192 0 -192 29 -29 29 -29 192 0 192 0 29 29
29 29 0 192 0 192 -29 29 -29 29 -192 0 -192 0 -29 -29z m251 -186 c7 -8 10
-22 6 -30 -3 -8 0 -26 6 -40 14 -32 -4 -55 -42 -55 -35 0 -54 22 -44 52 4 13
7 33 5 45 -1 13 0 27 4 33 9 15 51 12 65 -5z"/>
<path d="M1202 2643 c2 -10 10 -18 18 -18 8 0 16 8 18 18 2 12 -3 17 -18 17
-15 0 -20 -5 -18 -17z"/>
<path d="M1195 2590 c-4 -7 -3 -16 3 -22 14 -14 47 -6 47 12 0 18 -40 26 -50
10z"/>
<path d="M1699 2851 l-29 -29 0 -192 0 -192 29 -29 29 -29 192 0 192 0 29 29
29 29 0 192 0 192 -29 29 -29 29 -192 0 -192 0 -29 -29z m249 -183 c18 -18 15
-88 -5 -110 -17 -19 -63 -25 -63 -9 0 5 12 11 27 13 36 4 41 26 7 30 -37 4
-51 29 -36 62 13 28 49 35 70 14z"/>
<path d="M1894 2645 c-8 -20 4 -35 27 -35 14 0 19 7 19 25 0 18 -5 25 -20 25
-11 0 -23 -7 -26 -15z"/>
<path d="M2399 2851 l-29 -29 0 -192 0 -192 29 -29 29 -29 192 0 192 0 29 29
29 29 0 192 0 192 -29 29 -29 29 -192 0 -192 0 -29 -29z m181 -241 c0 -40 -4
-70 -10 -70 -5 0 -10 25 -10 55 0 44 -3 53 -15 49 -20 -8 -19 6 3 22 29 22 32
17 32 -56z m128 45 c25 -55 2 -115 -44 -115 -41 0 -59 74 -28 118 21 30 58 29
72 -3z"/>
<path d="M2645 2630 c-9 -40 2 -70 25 -70 23 0 34 30 25 70 -4 20 -13 30 -25
30 -12 0 -21 -10 -25 -30z"/>
<path d="M3089 2851 l-29 -29 0 -192 0 -192 29 -29 29 -29 192 0 192 0 29 29
29 29 0 192 0 192 -29 29 -29 29 -192 0 -192 0 -29 -29z m191 -241 c0 -40 -4
-70 -10 -70 -5 0 -10 24 -10 54 0 51 -1 54 -22 49 l-23 -5 24 21 c13 12 27 21
32 21 5 0 9 -31 9 -70z m110 0 c0 -40 -4 -70 -10 -70 -5 0 -10 25 -10 56 0 51
-2 55 -20 49 -27 -9 -25 9 3 23 36 17 37 15 37 -58z"/>
<path d="M3789 2851 l-29 -29 0 -192 0 -192 29 -29 29 -29 192 0 192 0 29 29
29 29 0 192 0 192 -29 29 -29 29 -192 0 -192 0 -29 -29z m191 -241 c0 -40 -4
-70 -10 -70 -5 0 -10 25 -10 56 0 51 -2 55 -20 49 -27 -9 -25 9 3 23 36 17 37
15 37 -58z m118 35 c3 -23 -3 -35 -30 -57 l-33 -27 38 -1 c20 0 37 -4 37 -10
0 -5 -20 -10 -45 -10 -54 0 -58 14 -15 55 38 37 41 69 5 63 -17 -4 -25 -1 -25
9 0 10 10 13 33 11 27 -3 32 -7 35 -33z"/>
<path d="M4489 2851 l-29 -29 0 -192 0 -192 29 -29 29 -29 192 0 192 0 29 29
29 29 0 192 0 192 -29 29 -29 29 -192 0 -192 0 -29 -29z m181 -241 c0 -40 -4
-70 -10 -70 -5 0 -10 25 -10 55 0 44 -3 53 -15 49 -24 -10 -17 12 8 24 12 6
23 11 25 11 1 1 2 -30 2 -69z m121 54 c9 -11 10 -20 2 -32 -7 -12 -7 -22 1
-35 16 -25 -4 -51 -43 -55 -17 -2 -31 1 -31 7 0 6 14 11 30 11 23 0 30 4 30
20 0 13 -7 20 -19 20 -30 0 -34 17 -6 24 36 9 32 36 -6 36 -17 0 -28 4 -24 10
10 15 51 12 66 -6z"/>
<path d="M299 2151 l-29 -29 0 -192 0 -192 29 -29 29 -29 192 0 192 0 29 29
29 29 0 192 0 192 -29 29 -29 29 -192 0 -192 0 -29 -29z m191 -241 c0 -40 -4
-70 -10 -70 -5 0 -10 24 -10 54 0 51 -1 54 -22 49 l-23 -5 24 21 c13 12 27 21
32 21 5 0 9 -31 9 -70z m120 25 c0 -25 4 -45 9 -45 5 0 4 -11 -2 -25 -13 -28
-27 -33 -27 -10 0 10 -10 15 -29 15 -17 0 -32 3 -35 8 -5 9 62 102 75 102 5 0
9 -20 9 -45z"/>
<path d="M566 1915 c-16 -24 -16 -25 4 -25 15 0 20 7 20 25 0 14 -2 25 -4 25
-2 0 -11 -11 -20 -25z"/>
<path d="M999 2151 l-29 -29 0 -192 0 -192 29 -29 29 -29 192 0 192 0 29 29
29 29 0 192 0 192 -29 29 -29 29 -192 0 -192 0 -29 -29z m191 -241 c0 -40 -4
-70 -10 -70 -5 0 -10 25 -10 56 0 51 -2 55 -20 49 -27 -9 -25 9 3 23 36 17 37
15 37 -58z m120 60 c0 -5 -11 -10 -25 -10 -16 0 -25 -6 -25 -15 0 -8 9 -15 20
-15 18 0 40 -26 40 -49 0 -18 -31 -41 -56 -41 -33 0 -30 18 4 22 19 2 27 9 27
23 0 14 -8 21 -27 23 -25 3 -28 8 -28 38 0 32 2 34 35 34 19 0 35 -4 35 -10z"/>
<path d="M1699 2151 l-29 -29 0 -192 0 -192 29 -29 29 -29 192 0 192 0 29 29
29 29 0 192 0 192 -29 29 -29 29 -192 0 -192 0 -29 -29z m181 -241 c0 -40 -4
-70 -10 -70 -5 0 -10 25 -10 55 0 44 -3 53 -15 49 -24 -10 -17 12 8 24 12 6
23 11 25 11 1 1 2 -30 2 -69z m130 60 c0 -5 -11 -10 -24 -10 -13 0 -26 -7 -30
-15 -4 -11 1 -15 17 -15 29 0 47 -18 47 -45 0 -27 -18 -45 -45 -45 -12 0 -26
5 -33 12 -17 17 -15 79 4 106 15 22 64 31 64 12z"/>
<path d="M1952 1888 c2 -15 10 -23 23 -23 30 0 27 39 -3 43 -20 3 -23 0 -20
-20z"/>
<path d="M2399 2151 l-29 -29 0 -192 0 -192 29 -29 29 -29 192 0 192 0 29 29
29 29 0 192 0 192 -29 29 -29 29 -192 0 -192 0 -29 -29z m181 -241 c0 -40 -4
-70 -10 -70 -5 0 -10 25 -10 55 0 44 -3 53 -15 49 -20 -8 -19 6 3 22 29 22 32
17 32 -56z m115 18 c-14 -29 -25 -61 -25 -70 0 -10 -7 -18 -15 -18 -12 0 -12
5 0 39 7 22 19 49 25 60 10 19 8 21 -19 21 -16 0 -33 5 -36 10 -4 6 13 10 44
10 l50 0 -24 -52z"/>
<path d="M3089 2151 l-29 -29 0 -192 0 -192 29 -29 29 -29 192 0 192 0 29 29
29 29 0 192 0 192 -29 29 -29 29 -192 0 -192 0 -29 -29z m191 -241 c0 -40 -4
-70 -10 -70 -5 0 -10 24 -10 54 0 51 -1 54 -22 49 l-23 -5 24 21 c13 12 27 21
32 21 5 0 9 -31 9 -70z m121 54 c9 -11 10 -20 2 -33 -8 -12 -7 -22 3 -35 21
-29 0 -58 -38 -54 -36 4 -55 27 -43 54 4 11 7 29 6 41 -1 13 0 27 4 33 10 15
51 12 66 -6z"/>
<path d="M3352 1943 c2 -10 10 -18 18 -18 8 0 16 8 18 18 2 12 -3 17 -18 17
-15 0 -20 -5 -18 -17z"/>
<path d="M3345 1890 c-9 -15 4 -30 26 -30 12 0 19 7 19 20 0 21 -33 29 -45 10z"/>
<path d="M3789 2151 l-29 -29 0 -192 0 -192 29 -29 29 -29 192 0 192 0 29 29
29 29 0 192 0 192 -29 29 -29 29 -192 0 -192 0 -29 -29z m191 -241 c0 -40 -4
-70 -10 -70 -5 0 -10 25 -10 56 0 51 -2 55 -20 49 -27 -9 -25 9 3 23 36 17 37
15 37 -58z m120 51 c26 -50 -1 -121 -46 -121 -13 0 -24 5 -24 10 0 6 11 10 25
10 14 0 25 2 25 4 0 2 3 11 6 19 4 12 0 14 -15 10 -41 -10 -69 45 -39 75 18
18 56 14 68 -7z"/>
<path d="M4040 1935 c0 -22 4 -26 23 -23 14 2 22 10 22 23 0 13 -8 21 -22 23
-19 3 -23 -1 -23 -23z"/>
<path d="M4489 2151 l-29 -29 0 -192 0 -192 29 -29 29 -29 192 0 192 0 29 29
29 29 0 192 0 192 -29 29 -29 29 -192 0 -192 0 -29 -29z m199 -206 c3 -23 -3
-35 -30 -57 l-33 -27 38 -1 c20 0 37 -4 37 -10 0 -5 -20 -10 -45 -10 -54 0
-58 14 -15 55 38 37 41 69 5 63 -17 -4 -25 -1 -25 9 0 10 10 13 33 11 27 -3
32 -7 35 -33z m112 16 c5 -11 10 -34 10 -51 0 -44 -17 -70 -44 -70 -33 0 -49
23 -49 70 0 22 6 46 13 55 18 21 57 19 70 -4z"/>
<path d="M4744 1947 c-3 -8 -4 -30 -2 -49 2 -25 8 -33 23 -33 17 0 20 7 20 45
0 35 -4 45 -18 48 -9 2 -20 -3 -23 -11z"/>
<path d="M299 1451 l-29 -29 0 -192 0 -192 29 -29 29 -29 192 0 192 0 29 29
29 29 0 192 0 192 -29 29 -29 29 -192 0 -192 0 -29 -29z m199 -173 c20 -20 14
-45 -18 -71 -16 -14 -30 -28 -30 -31 0 -3 14 -6 30 -6 17 0 30 -4 30 -10 0 -5
-20 -10 -45 -10 -55 0 -57 12 -10 54 45 42 47 70 5 64 -29 -4 -37 1 -23 15 11
11 48 8 61 -5z m102 -58 c0 -40 -4 -70 -10 -70 -5 0 -10 25 -10 56 0 51 -2 55
-20 49 -27 -9 -25 9 3 23 36 17 37 15 37 -58z"/>
<path d="M999 1451 l-29 -29 0 -192 0 -192 29 -29 29 -29 192 0 192 0 29 29
29 29 0 192 0 192 -29 29 -29 29 -192 0 -192 0 -29 -29z m199 -173 c20 -20 14
-45 -18 -71 -16 -14 -30 -28 -30 -31 0 -3 14 -6 30 -6 17 0 30 -4 30 -10 0 -5
-20 -10 -45 -10 -25 0 -45 5 -45 10 0 6 16 27 35 47 40 41 40 58 2 58 -27 -1
-33 5 -20 18 11 11 48 8 61 -5z m110 -23 c3 -23 -3 -35 -30 -57 l-33 -27 38
-1 c20 0 37 -4 37 -10 0 -5 -20 -10 -45 -10 -54 0 -58 14 -15 55 38 37 41 69
5 63 -17 -4 -25 -1 -25 9 0 10 10 13 33 11 27 -3 32 -7 35 -33z"/>
<path d="M1699 1451 l-29 -29 0 -192 0 -192 29 -29 29 -29 192 0 192 0 29 29
29 29 0 192 0 192 -29 29 -29 29 -192 0 -192 0 -29 -29z m199 -196 c3 -23 -3
-35 -30 -57 l-33 -27 38 -1 c20 0 37 -4 37 -10 0 -5 -20 -10 -45 -10 -54 0
-58 14 -15 55 38 37 41 69 5 63 -17 -4 -25 -1 -25 9 0 10 10 13 33 11 27 -3
32 -7 35 -33z m103 19 c9 -11 10 -20 2 -32 -7 -12 -7 -22 1 -35 16 -25 -4 -51
-43 -55 -17 -2 -31 1 -31 7 0 6 14 11 30 11 23 0 30 4 30 20 0 13 -7 20 -19
20 -30 0 -34 17 -6 24 36 9 32 36 -6 36 -17 0 -28 4 -24 10 10 15 51 12 66 -6z"/>
<path d="M2399 1451 l-29 -29 0 -192 0 -192 29 -29 29 -29 192 0 192 0 29 29
29 29 0 192 0 192 -29 29 -29 29 -192 0 -192 0 -29 -29z m199 -192 c2 -20 -6
-35 -30 -58 l-33 -31 32 0 c17 0 35 -4 38 -10 4 -6 -12 -10 -39 -10 -56 0 -60
17 -16 57 17 14 30 35 30 46 0 16 -5 18 -30 15 -16 -3 -30 -2 -30 2 0 14 16
21 45 18 24 -2 31 -8 33 -29z m102 -13 c0 -26 5 -47 13 -50 10 -5 10 -7 0 -12
-7 -3 -13 -12 -13 -20 0 -8 -4 -14 -10 -14 -5 0 -10 7 -10 15 0 10 -10 15 -28
15 -16 0 -31 3 -35 6 -7 7 63 104 75 104 4 0 8 -20 8 -44z"/>
<path d="M2656 1225 c-16 -24 -16 -25 4 -25 15 0 20 7 20 25 0 14 -2 25 -4 25
-2 0 -11 -11 -20 -25z"/>
<path d="M3089 1451 l-29 -29 0 -192 0 -192 29 -29 29 -29 192 0 192 0 29 29
29 29 0 192 0 192 -29 29 -29 29 -192 0 -192 0 -29 -29z m199 -173 c20 -20 14
-45 -18 -71 -16 -14 -30 -28 -30 -31 0 -3 14 -6 30 -6 17 0 30 -4 30 -10 0 -5
-20 -10 -45 -10 -55 0 -57 12 -10 54 45 42 47 70 5 64 -29 -4 -37 1 -23 15 11
11 48 8 61 -5z m112 2 c0 -5 -11 -10 -25 -10 -16 0 -25 -6 -25 -15 0 -8 8 -15
18 -15 24 0 42 -19 42 -45 0 -29 -19 -45 -52 -45 -36 0 -37 18 0 22 19 2 27 9
27 23 0 14 -8 21 -27 23 -25 3 -28 8 -28 38 0 32 2 34 35 34 19 0 35 -4 35
-10z"/>
<path d="M3789 1451 l-29 -29 0 -192 0 -192 29 -29 29 -29 192 0 192 0 29 29
29 29 0 192 0 192 -29 29 -29 29 -192 0 -192 0 -29 -29z m199 -173 c20 -20 14
-45 -18 -71 -16 -14 -30 -28 -30 -31 0 -3 14 -6 30 -6 17 0 30 -4 30 -10 0 -5
-20 -10 -45 -10 -25 0 -45 5 -45 10 0 6 16 27 35 47 40 41 40 58 2 58 -27 -1
-33 5 -20 18 11 11 48 8 61 -5z m112 2 c0 -5 -11 -10 -25 -10 -14 0 -25 -2
-25 -4 0 -2 -3 -11 -6 -19 -4 -12 0 -14 15 -10 27 7 51 -13 51 -41 0 -28 -18
-46 -47 -46 -41 0 -58 74 -27 118 15 22 64 31 64 12z"/>
<path d="M4044 1205 c-8 -20 4 -35 27 -35 14 0 19 7 19 25 0 18 -5 25 -20 25
-11 0 -23 -7 -26 -15z"/>
<path d="M4489 1451 l-29 -29 0 -192 0 -192 29 -29 29 -29 192 0 192 0 29 29
29 29 0 192 0 192 -29 29 -29 29 -192 0 -192 0 -29 -29z m199 -196 c3 -23 -3
-35 -30 -57 l-33 -27 38 -1 c20 0 37 -4 37 -10 0 -5 -20 -10 -45 -10 -54 0
-58 14 -15 55 38 37 41 69 5 63 -17 -4 -25 -1 -25 9 0 10 10 13 33 11 27 -3
32 -7 35 -33z m119 23 c-4 -7 -16 -39 -29 -70 -13 -32 -26 -58 -30 -58 -13 0
-9 23 12 69 11 24 20 45 20 47 0 2 -13 4 -30 4 -16 0 -30 5 -30 10 0 6 21 10
46 10 33 0 45 -4 41 -12z"/>
<path d="M299 751 l-29 -29 0 -192 0 -192 29 -29 29 -29 192 0 192 0 29 29 29
29 0 192 0 192 -29 29 -29 29 -192 0 -192 0 -29 -29z m199 -173 c20 -20 14
-45 -18 -71 -16 -14 -30 -28 -30 -31 0 -3 14 -6 30 -6 17 0 30 -4 30 -10 0 -5
-20 -10 -45 -10 -55 0 -57 12 -10 54 45 42 47 70 5 64 -29 -4 -37 1 -23 15 11
11 48 8 61 -5z m113 -4 c9 -11 10 -20 2 -33 -8 -12 -7 -22 3 -35 21 -29 0 -58
-38 -54 -36 4 -55 27 -43 54 4 11 7 29 6 41 -1 13 0 27 4 33 10 15 51 12 66
-6z"/>
<path d="M562 553 c2 -10 10 -18 18 -18 8 0 16 8 18 18 2 12 -3 17 -18 17 -15
0 -20 -5 -18 -17z"/>
<path d="M555 500 c-9 -15 4 -30 26 -30 12 0 19 7 19 20 0 21 -33 29 -45 10z"/>
<path d="M999 751 l-29 -29 0 -192 0 -192 29 -29 29 -29 192 0 192 0 29 29 29
29 0 192 0 192 -29 29 -29 29 -192 0 -192 0 -29 -29z m199 -173 c20 -20 14
-45 -18 -71 -16 -14 -30 -28 -30 -31 0 -3 14 -6 30 -6 17 0 30 -4 30 -10 0 -5
-20 -10 -45 -10 -25 0 -45 5 -45 10 0 6 16 27 35 47 40 41 40 58 2 58 -27 -1
-33 5 -20 18 11 11 48 8 61 -5z m112 -7 c26 -50 -1 -121 -46 -121 -13 0 -24 5
-24 10 0 6 11 10 25 10 14 0 25 2 25 4 0 2 3 11 6 19 4 12 0 14 -15 10 -41
-10 -69 45 -39 75 18 18 56 14 68 -7z"/>
<path d="M1250 545 c0 -22 4 -26 23 -23 14 2 22 10 22 23 0 13 -8 21 -22 23
-19 3 -23 -1 -23 -23z"/>
<path d="M1699 751 l-29 -29 0 -192 0 -192 29 -29 29 -29 192 0 192 0 29 29
29 29 0 192 0 192 -29 29 -29 29 -192 0 -192 0 -29 -29z m198 -177 c3 -9 2
-24 -4 -33 -7 -12 -6 -20 3 -29 18 -17 18 -27 -2 -46 -17 -18 -74 -22 -74 -6
0 6 14 10 30 10 23 0 30 4 30 20 0 13 -7 20 -19 20 -29 0 -35 18 -9 22 13 2
24 11 26 21 3 13 -3 17 -28 17 -18 0 -29 4 -25 10 10 17 65 12 72 -6z m113 -3
c5 -11 10 -34 10 -51 0 -44 -17 -70 -44 -70 -33 0 -49 23 -49 70 0 22 6 46 13
55 18 21 57 19 70 -4z"/>
<path d="M1954 557 c-3 -8 -4 -30 -2 -49 2 -25 8 -33 23 -33 17 0 20 7 20 45
0 35 -4 45 -18 48 -9 2 -20 -3 -23 -11z"/>
<path d="M2399 751 l-29 -29 0 -192 0 -192 29 -29 29 -29 192 0 192 0 29 29
29 29 0 192 0 192 -29 29 -29 29 -192 0 -192 0 -29 -29z m192 -177 c9 -11 10
-20 2 -32 -7 -12 -7 -22 1 -35 16 -25 -4 -51 -43 -55 -17 -2 -31 1 -31 7 0 6
14 11 30 11 23 0 30 4 30 20 0 13 -7 20 -19 20 -30 0 -34 17 -6 24 36 9 32 36
-6 36 -17 0 -28 4 -24 10 10 15 51 12 66 -6z m99 -54 c0 -40 -4 -70 -10 -70
-5 0 -10 24 -10 54 0 51 -1 54 -22 49 l-23 -5 24 21 c13 12 27 21 32 21 5 0 9
-31 9 -70z"/>
</g>
</svg>
