<?xml version="1.0" standalone="no"?>
<!DOCTYPE svg PUBLIC "-//W3C//DTD SVG 20010904//EN"
 "http://www.w3.org/TR/2001/REC-SVG-20010904/DTD/svg10.dtd">
<svg version="1.0" xmlns="http://www.w3.org/2000/svg"
 width="661.000000pt" height="126.000000pt" viewBox="0 0 661.000000 126.000000"
 preserveAspectRatio="xMidYMid meet">

<g transform="translate(0.000000,126.000000) scale(0.100000,-0.100000)"
fill="#000000" stroke="none">
<path d="M0 630 l0 -630 3305 0 3305 0 0 630 0 630 -3305 0 -3305 0 0 -630z
m410 15 l0 -425 -50 0 -50 0 0 355 0 355 -48 -30 c-45 -27 -123 -60 -143 -60
-5 0 -9 20 -9 44 l0 44 103 50 c56 27 113 58 127 70 14 12 35 21 48 22 l22 0
0 -425z m621 414 c94 -29 152 -113 151 -220 0 -124 -50 -195 -233 -331 -98
-72 -149 -133 -149 -175 l0 -23 208 -2 207 -3 3 -43 3 -42 -267 0 -267 0 6 69
c10 115 46 164 221 298 134 102 181 186 162 288 -23 121 -188 149 -303 50 -23
-19 -44 -35 -47 -35 -3 0 -6 22 -6 49 0 45 3 53 33 75 19 14 51 32 73 40 48
18 153 20 205 5z m937 -5 c111 -46 171 -187 172 -407 0 -166 -52 -327 -125
-383 -70 -53 -176 -70 -249 -40 -120 50 -178 184 -178 411 1 185 41 308 124
379 23 20 56 40 73 45 49 15 143 12 183 -5z m666 -10 c22 -11 53 -36 68 -55
98 -121 114 -449 32 -625 -76 -161 -272 -206 -392 -91 -65 62 -98 155 -108
302 -15 227 48 406 167 468 47 25 63 28 124 25 45 -2 84 -10 109 -24z m903 1
c88 -41 135 -134 153 -306 21 -206 -26 -391 -120 -471 -104 -90 -271 -73 -350
35 -55 75 -75 161 -75 327 0 166 19 250 77 336 67 99 201 133 315 79z m631 9
c111 -46 171 -187 172 -407 0 -166 -52 -327 -125 -383 -70 -53 -176 -70 -249
-40 -120 50 -178 184 -178 411 1 185 41 308 124 379 23 20 56 40 73 45 49 15
143 12 183 -5z m1131 -366 c79 -205 152 -394 162 -420 l19 -48 -59 0 -58 0
-43 115 -42 115 -178 0 -177 0 -40 -113 -40 -112 -58 -3 c-51 -3 -57 -1 -53
15 6 19 280 733 303 791 13 30 17 32 68 32 l53 0 143 -372z m563 77 c70 -159
136 -310 147 -335 l19 -45 11 30 c7 17 74 167 149 335 l138 305 67 3 67 3 0
-421 0 -420 -56 0 -55 0 3 338 3 339 -150 -339 c-150 -339 -150 -339 -179
-336 -28 3 -35 15 -175 330 l-146 327 -3 -329 -2 -330 -55 0 -55 0 0 420 0
421 72 -3 72 -3 128 -290z m-4402 45 c26 -26 25 -64 -2 -90 -28 -26 -72 -26
-98 0 -41 41 -10 110 50 110 17 0 39 -9 50 -20z m1552 3 c22 -20 23 -70 1 -95
-37 -41 -115 -10 -115 47 0 56 72 87 114 48z m-1555 -495 c28 -26 30 -61 3
-88 -41 -41 -120 -12 -120 45 0 58 73 85 117 43z m1555 5 c22 -20 23 -70 1
-95 -37 -41 -115 -10 -115 47 0 56 72 87 114 48z"/>
<path d="M1814 976 c-71 -32 -111 -127 -120 -291 -11 -181 30 -336 99 -372 44
-22 111 -21 145 3 15 11 40 46 56 78 28 55 30 68 34 199 7 208 -19 318 -88
369 -34 25 -88 31 -126 14z"/>
<path d="M2454 971 c-33 -15 -47 -30 -68 -72 -38 -78 -49 -156 -43 -304 6
-189 42 -271 128 -295 79 -23 155 27 184 122 22 70 30 263 16 358 -26 167
-110 241 -217 191z"/>
<path d="M3382 983 c-39 -8 -90 -69 -109 -131 -14 -45 -18 -92 -18 -227 0
-157 2 -174 24 -223 43 -96 113 -130 195 -94 35 16 48 30 69 73 80 165 51 518
-47 582 -26 18 -80 27 -114 20z"/>
<path d="M4014 976 c-71 -32 -111 -127 -120 -291 -11 -181 30 -336 99 -372 44
-22 111 -21 145 3 15 11 40 46 56 78 28 55 30 68 34 199 7 208 -19 318 -88
369 -34 25 -88 31 -126 14z"/>
<path d="M5030 743 c-35 -98 -65 -184 -68 -190 -3 -10 29 -13 138 -13 109 0
141 3 138 13 -46 132 -134 367 -138 367 -3 0 -34 -80 -70 -177z"/>
</g>
</svg>
