<?xml version="1.0" standalone="no"?>
<!DOCTYPE svg PUBLIC "-//W3C//DTD SVG 20010904//EN"
 "http://www.w3.org/TR/2001/REC-SVG-20010904/DTD/svg10.dtd">
<svg version="1.0" xmlns="http://www.w3.org/2000/svg"
 width="383.000000pt" height="163.000000pt" viewBox="0 0 383.000000 163.000000"
 preserveAspectRatio="xMidYMid meet">

<g transform="translate(0.000000,163.000000) scale(0.100000,-0.100000)"
fill="#000000" stroke="none">
<path d="M30 1580 c-20 -20 -20 -33 -20 -783 0 -595 3 -767 13 -780 11 -16
134 -17 1907 -15 l1895 3 3 785 c2 729 1 786 -15 798 -13 9 -407 12 -1890 12
-1860 0 -1873 0 -1893 -20z m2735 -115 c25 -24 25 -26 25 -210 0 -184 0 -186
-25 -210 l-24 -25 -1286 0 -1286 0 -24 25 c-25 24 -25 26 -25 210 0 184 0 186
25 210 l24 25 1286 0 1286 0 24 -25z m340 -160 c0 -22 -31 -33 -47 -17 -17 17
-1 44 24 40 15 -2 23 -10 23 -23z m140 3 c18 -27 1 -39 -19 -13 -33 46 -93
-15 -68 -70 13 -28 59 -35 68 -10 6 15 34 22 34 8 0 -19 -37 -43 -66 -43 -40
0 -64 29 -64 77 0 65 80 100 115 51z m217 -55 c17 -15 19 -15 38 2 31 28 37 8
7 -22 l-26 -27 -26 24 c-38 35 -31 58 7 23z m-3202 -417 c0 -18 -1 -19 -20 -1
-17 15 -24 16 -45 7 -20 -9 -25 -19 -25 -47 0 -44 33 -65 71 -44 22 11 23 11
10 -4 -18 -23 -67 -21 -91 3 -46 46 -9 113 60 108 32 -1 40 -6 40 -22z m514
-18 c8 -5 7 -8 -1 -8 -8 0 -13 -14 -13 -36 0 -24 4 -33 12 -28 7 4 8 3 4 -4
-16 -27 -36 -12 -36 27 0 35 -2 39 -21 34 -27 -7 -35 -30 -20 -54 10 -16 8
-19 -11 -19 -21 0 -23 4 -20 45 4 44 5 45 38 45 23 0 37 6 41 17 5 14 8 14 11
2 3 -7 10 -17 16 -21z m106 -1 c12 -4 12 -6 -2 -6 -12 -1 -16 -9 -16 -31 1
-35 28 -42 28 -7 0 42 49 64 78 35 29 -29 7 -78 -34 -78 -13 0 -26 5 -30 11
-4 8 -9 8 -17 0 -23 -23 -37 -12 -37 29 0 23 -5 40 -11 40 -8 0 -7 5 1 15 7 9
16 12 19 7 3 -5 13 -12 21 -15z m-532 -9 c7 -7 12 -21 12 -33 0 -47 -62 -63
-81 -21 -22 47 33 90 69 54z m113 -35 l5 -43 -45 0 -46 0 3 44 c4 44 4 44 40
42 36 -1 37 -3 43 -43z m53 15 l7 -33 14 25 c7 14 11 28 9 32 -3 5 1 8 9 8 12
0 11 -9 -6 -45 -12 -25 -24 -45 -27 -45 -3 0 -15 20 -27 45 -19 42 -19 45 -3
45 12 0 20 -11 24 -32z m134 10 c3 -14 -3 -18 -27 -18 -23 0 -29 -4 -25 -15 7
-18 40 -20 48 -2 3 6 5 3 3 -8 -2 -15 -10 -20 -32 -20 -26 0 -30 4 -33 28 -2
16 -1 35 2 44 8 20 60 13 64 -9z m382 12 c0 -5 -7 -10 -15 -10 -8 0 -15 5 -15
10 0 6 7 10 15 10 8 0 15 -4 15 -10z m-5 -70 c-3 -5 -10 -10 -16 -10 -5 0 -9
5 -9 10 0 6 7 10 16 10 8 0 12 -4 9 -10z m2080 -225 c0 -22 -31 -33 -47 -17
-17 17 -1 44 24 40 15 -2 23 -10 23 -23z m139 3 c14 -23 -1 -36 -17 -14 -34
47 -94 -13 -69 -69 13 -28 59 -35 68 -10 6 15 34 22 34 8 0 -19 -37 -43 -66
-43 -60 0 -88 86 -43 131 24 24 77 23 93 -3z m-2924 -17 c25 -47 5 -111 -35
-111 -28 0 -45 25 -45 66 0 53 58 86 80 45z m150 0 c25 -47 5 -111 -35 -111
-28 0 -45 25 -45 66 0 53 58 86 80 45z m100 0 c25 -47 5 -111 -35 -111 -28 0
-45 25 -45 66 0 53 58 86 80 45z m190 -5 c0 -18 -1 -19 -20 -1 -17 15 -24 16
-45 7 -20 -9 -25 -19 -25 -47 0 -44 33 -65 71 -44 22 11 23 11 10 -4 -18 -23
-67 -21 -91 3 -46 46 -9 113 60 108 32 -1 40 -6 40 -22z m2702 -33 c17 -15 19
-15 38 2 31 28 37 8 7 -22 l-26 -27 -26 24 c-38 35 -31 58 7 23z m-3092 -63
c0 -5 -4 -10 -10 -10 -5 0 -10 5 -10 10 0 6 5 10 10 10 6 0 10 -4 10 -10z"/>
<path d="M155 1455 c-25 -24 -25 -27 -25 -200 0 -173 0 -176 25 -200 l24 -25
1276 0 1276 0 24 25 c25 24 25 27 25 200 0 173 0 176 -25 200 l-24 25 -1276 0
-1276 0 -24 -25z m202 -252 c-2 -32 -3 -6 -3 57 0 63 1 89 3 58 2 -32 2 -84 0
-115z m2313 57 l0 -110 -95 0 -95 0 0 110 0 110 95 0 95 0 0 -110z m-2346 64
c10 -9 16 -33 16 -59 0 -69 -51 -101 -84 -53 -46 65 15 165 68 112z"/>
<path d="M2550 1305 l-23 -25 48 0 48 0 -23 25 c-13 14 -24 25 -25 25 -1 0
-12 -11 -25 -25z"/>
<path d="M2550 1215 l24 -25 23 22 c13 12 23 23 23 25 0 2 -21 3 -47 3 l-46 0
23 -25z"/>
<path d="M267 1293 c-8 -43 3 -83 23 -83 27 0 40 53 24 94 -10 27 -41 19 -47
-11z"/>
<path d="M3070 1305 c0 -8 5 -15 10 -15 6 0 10 7 10 15 0 8 -4 15 -10 15 -5 0
-10 -7 -10 -15z"/>
<path d="M916 794 c-8 -20 12 -56 27 -51 17 5 21 35 7 52 -16 19 -26 19 -34
-1z"/>
<path d="M304 796 c-9 -23 0 -51 16 -51 10 0 15 10 15 29 0 32 -21 47 -31 22z"/>
<path d="M412 801 c-18 -11 -11 -56 8 -56 17 0 27 42 13 56 -4 4 -14 4 -21 0z"/>
<path d="M595 800 c-3 -5 3 -10 15 -10 12 0 18 5 15 10 -3 6 -10 10 -15 10 -5
0 -12 -4 -15 -10z"/>
<path d="M3070 515 c0 -8 5 -15 10 -15 6 0 10 7 10 15 0 8 -4 15 -10 15 -5 0
-10 -7 -10 -15z"/>
<path d="M271 487 c-6 -16 -11 -30 -11 -32 0 -2 5 -16 11 -32 10 -27 11 -27
25 -9 8 11 14 29 14 41 0 12 -6 30 -14 41 -14 18 -15 18 -25 -9z"/>
<path d="M421 487 c-6 -16 -11 -30 -11 -32 0 -2 5 -16 11 -32 10 -27 11 -27
25 -9 8 11 14 29 14 41 0 12 -6 30 -14 41 -14 18 -15 18 -25 -9z"/>
<path d="M521 487 c-6 -16 -11 -30 -11 -32 0 -2 5 -16 11 -32 10 -27 11 -27
25 -9 8 11 14 29 14 41 0 12 -6 30 -14 41 -14 18 -15 18 -25 -9z"/>
</g>
</svg>
