<svg xmlns="http://www.w3.org/2000/svg" xmlns:xlink="http://www.w3.org/1999/xlink" width="1080" zoomAndPan="magnify" viewBox="0 0 810 809.999993" height="1080" preserveAspectRatio="xMidYMid meet" version="1.0"><defs><clipPath id="id1"><path d="M 0 0 L 809.351562 0 L 809.351562 809.351562 L 0 809.351562 Z M 0 0 " clip-rule="nonzero"/></clipPath><clipPath id="id2"><path d="M 315.5625 110.144531 L 494.0625 110.144531 L 494.0625 288.644531 L 315.5625 288.644531 Z M 315.5625 110.144531 " clip-rule="nonzero"/></clipPath></defs><g clip-path="url(#id1)"><path fill="#ffffff" d="M 404.675781 809.351562 C 296.632812 809.351562 194.898438 767.300781 118.554688 690.796875 C 42.050781 614.453125 0 512.71875 0 404.675781 C 0 296.632812 42.050781 194.898438 118.554688 118.554688 C 194.898438 42.050781 296.632812 0 404.675781 0 C 512.71875 0 614.453125 42.050781 690.796875 118.554688 C 767.300781 195.058594 809.351562 296.632812 809.351562 404.675781 C 809.351562 512.71875 767.300781 614.453125 690.796875 690.796875 C 614.453125 767.300781 512.71875 809.351562 404.675781 809.351562 Z M 404.675781 24.261719 C 303.101562 24.261719 207.515625 63.886719 135.699219 135.699219 C 63.886719 207.515625 24.261719 303.101562 24.261719 404.675781 C 24.261719 506.25 63.886719 601.839844 135.699219 673.652344 C 207.515625 745.464844 303.101562 785.089844 404.675781 785.089844 C 506.25 785.089844 601.839844 745.464844 673.652344 673.652344 C 745.464844 601.839844 785.089844 506.25 785.089844 404.675781 C 785.089844 303.101562 745.464844 207.515625 673.652344 135.699219 C 601.839844 63.886719 506.25 24.261719 404.675781 24.261719 Z M 404.675781 24.261719 " fill-opacity="1" fill-rule="nonzero"/></g><g clip-path="url(#id2)"><path fill="#ffffff" d="M 404.8125 110.144531 C 355.523438 110.144531 315.5625 150.105469 315.5625 199.394531 C 315.5625 248.6875 355.523438 288.644531 404.8125 288.644531 C 454.105469 288.644531 494.0625 248.6875 494.0625 199.394531 C 494.0625 150.105469 454.105469 110.144531 404.8125 110.144531 " fill-opacity="1" fill-rule="nonzero"/></g></svg>