<?xml version="1.0" standalone="no"?>
<!DOCTYPE svg PUBLIC "-//W3C//DTD SVG 20010904//EN"
 "http://www.w3.org/TR/2001/REC-SVG-20010904/DTD/svg10.dtd">
<svg version="1.0" xmlns="http://www.w3.org/2000/svg"
 width="266.000000pt" height="165.000000pt" viewBox="0 0 266.000000 165.000000"
 preserveAspectRatio="xMidYMid meet">

<g transform="translate(0.000000,165.000000) scale(0.100000,-0.100000)"
fill="#000000" stroke="none">
<path d="M0 825 l0 -825 1330 0 1330 0 0 825 0 825 -1330 0 -1330 0 0 -825z
m871 535 c106 -111 53 -370 -76 -370 -72 0 -127 83 -129 195 -2 125 53 215
131 215 29 0 44 -8 74 -40z m300 0 c106 -111 53 -370 -76 -370 -73 0 -128 84
-129 195 -2 126 53 215 131 215 29 0 44 -8 74 -40z m446 23 c99 -65 95 -325
-6 -377 -69 -36 -124 -11 -161 76 -44 101 -14 256 58 301 35 21 76 21 109 0z
m316 -16 c40 -41 57 -94 57 -178 0 -117 -57 -199 -138 -199 -41 0 -76 31 -102
92 -44 101 -12 265 60 304 44 24 86 17 123 -19z m-573 -126 c7 -15 6 -23 -6
-35 -8 -9 -19 -16 -24 -16 -5 0 -16 7 -24 16 -20 19 -5 54 24 54 11 0 24 -9
30 -19z m-6 -197 c12 -12 13 -20 6 -35 -12 -21 -40 -25 -58 -7 -16 16 -15 23
4 42 19 20 29 20 48 0z m-760 -626 c5 -9 7 -21 2 -25 -4 -4 -12 0 -17 10 -6 9
-21 17 -35 17 -37 0 -27 -32 13 -42 42 -11 57 -38 37 -66 -24 -34 -104 -23
-104 13 0 20 16 19 24 -1 8 -20 60 -15 64 7 2 11 -10 19 -37 27 -43 14 -56 33
-40 63 13 25 76 23 93 -3z m69 -18 c8 0 8 -3 -1 -12 -16 -16 -16 -70 0 -86 9
-9 7 -12 -9 -12 -18 0 -22 7 -25 53 -5 56 12 124 19 80 3 -13 9 -23 16 -23z
m231 -3 c8 -6 8 -10 -1 -14 -7 -2 -13 -20 -13 -38 0 -18 6 -35 13 -38 6 -2 9
-8 5 -12 -18 -19 -38 6 -38 45 0 37 -2 41 -22 38 -19 -2 -24 -10 -26 -45 -5
-62 -22 -53 -22 12 l0 55 34 0 c26 0 35 5 41 23 7 21 7 21 12 2 3 -11 10 -24
17 -28z m886 23 c12 -22 -2 -60 -21 -60 -5 0 2 -16 17 -35 20 -27 23 -35 11
-35 -9 0 -25 14 -37 30 -12 17 -30 30 -41 30 -14 0 -19 -7 -19 -30 0 -16 -4
-30 -10 -30 -6 0 -10 32 -10 75 l0 75 50 0 c39 0 52 -4 60 -20z m381 -2 c1
-13 1 -40 -1 -61 -1 -21 4 -44 10 -52 10 -12 9 -15 -9 -15 -18 0 -21 6 -21 44
0 26 -5 47 -12 50 -10 5 -10 7 0 12 6 3 12 14 12 25 0 27 20 24 21 -3z m-1393
-74 l3 -52 -43 2 c-39 1 -43 3 -43 26 0 20 7 27 33 35 43 12 41 29 -3 22 -33
-5 -44 1 -28 17 4 4 23 6 43 4 35 -3 35 -3 38 -54z m1120 44 c7 -7 12 -20 12
-30 0 -14 -8 -18 -35 -18 -19 0 -35 -5 -35 -10 0 -17 29 -23 45 -10 20 17 32
5 15 -15 -19 -23 -57 -18 -75 9 -33 50 31 116 73 74z m110 -5 c2 -9 -5 -11
-27 -7 -40 8 -40 -8 0 -23 24 -9 30 -17 27 -35 -4 -32 -62 -39 -78 -9 -9 17
-8 21 5 21 8 0 15 -4 15 -10 0 -5 9 -10 20 -10 30 0 24 17 -10 29 -29 10 -40
37 -23 55 11 11 66 2 71 -11z m100 5 c7 -7 12 -20 12 -30 0 -14 -8 -18 -35
-18 -19 0 -35 -5 -35 -10 0 -17 29 -23 45 -10 20 17 32 5 15 -15 -19 -23 -57
-18 -75 9 -33 50 31 116 73 74z"/>
<path d="M766 1361 c-26 -29 -36 -78 -36 -176 0 -104 24 -175 59 -175 48 0 71
62 71 193 0 140 -44 214 -94 158z"/>
<path d="M1061 1354 c-55 -70 -33 -344 29 -344 47 0 70 63 70 193 0 146 -46
218 -99 151z"/>
<path d="M1538 1370 c-28 -17 -42 -80 -43 -185 0 -83 4 -106 21 -135 43 -75
90 -42 107 75 17 124 -12 256 -57 255 -6 0 -19 -5 -28 -10z"/>
<path d="M1838 1370 c-28 -17 -42 -80 -43 -185 0 -83 4 -106 21 -135 43 -75
90 -42 107 75 17 124 -12 256 -57 255 -6 0 -19 -5 -28 -10z"/>
<path d="M1690 394 c0 -23 3 -25 33 -22 24 2 33 8 35 26 3 19 -1 22 -32 22
-32 0 -36 -3 -36 -26z"/>
<path d="M707 333 c-14 -13 -6 -24 15 -21 27 4 36 28 11 28 -11 0 -23 -3 -26
-7z"/>
<path d="M1830 370 c0 -5 12 -10 26 -10 14 0 23 4 19 10 -3 6 -15 10 -26 10
-10 0 -19 -4 -19 -10z"/>
<path d="M2040 370 c0 -5 12 -10 26 -10 14 0 23 4 19 10 -3 6 -15 10 -26 10
-10 0 -19 -4 -19 -10z"/>
</g>
</svg>
