<?xml version="1.0" standalone="no"?>
<!DOCTYPE svg PUBLIC "-//W3C//DTD SVG 20010904//EN"
 "http://www.w3.org/TR/2001/REC-SVG-20010904/DTD/svg10.dtd">
<svg version="1.0" xmlns="http://www.w3.org/2000/svg"
 width="377.000000pt" height="233.000000pt" viewBox="0 0 377.000000 233.000000"
 preserveAspectRatio="xMidYMid meet">

<g transform="translate(0.000000,233.000000) scale(0.100000,-0.100000)"
fill="#000000" stroke="none">
<path d="M5 2318 c-3 -7 -4 -530 -3 -1163 l3 -1150 1865 -3 c1745 -2 1866 -1
1877 15 17 22 19 2263 3 2294 -11 19 -42 19 -1876 19 -1482 0 -1866 -3 -1869
-12z m895 -128 c18 -18 20 -33 20 -145 0 -179 26 -165 -315 -165 -341 0 -315
-14 -315 165 0 179 -26 165 315 165 262 0 276 -1 295 -20z m338 -77 c-30 -3
-38 -9 -38 -24 0 -15 8 -19 38 -21 l37 -1 -37 -4 c-32 -4 -38 -8 -38 -28 0
-21 5 -24 43 -28 40 -3 40 -4 -10 -5 l-53 -2 0 60 0 60 48 -2 c43 -1 44 -2 10
-5z m834 -45 c2 -42 7 -54 22 -56 25 -5 36 14 36 66 0 24 5 42 11 42 16 0 5
-100 -12 -111 -20 -12 -53 -11 -67 3 -14 14 -16 108 -3 108 6 0 11 -24 13 -52z
m258 -8 l0 -60 -30 0 c-24 0 -33 6 -40 26 -13 34 3 64 35 64 14 0 24 3 24 8
-2 12 1 22 6 22 3 0 5 -27 5 -60z m580 45 c14 -17 0 -21 -17 -4 -6 6 -20 8
-32 4 -17 -5 -21 -15 -21 -45 0 -47 29 -63 61 -34 20 18 27 6 7 -14 -30 -30
-88 1 -88 46 0 51 61 82 90 47z m50 -45 c0 -33 -4 -60 -10 -60 -6 0 -10 27
-10 60 0 33 4 60 10 60 6 0 10 -27 10 -60z m-1632 23 c-13 -3 -18 -15 -18 -44
0 -21 -4 -39 -10 -39 -5 0 -10 20 -10 45 0 43 1 45 28 44 16 -1 20 -3 10 -6z
m90 -39 l3 -41 -38 1 c-50 1 -59 31 -14 47 17 6 31 15 31 20 0 13 -24 11 -38
-3 -7 -7 -12 -8 -12 -2 0 18 13 25 40 22 22 -3 25 -9 28 -44z m77 36 c4 -7 -2
-9 -19 -4 -37 9 -33 -12 5 -25 32 -11 34 -27 7 -45 -11 -7 -24 -6 -40 2 -21
10 -20 10 10 5 39 -7 44 13 7 27 -24 9 -32 29 -18 43 10 11 41 8 48 -3z m93
-2 c21 -21 13 -38 -18 -38 -16 0 -30 -5 -30 -10 0 -16 33 -26 38 -12 2 7 8 12
14 12 6 0 6 -6 -2 -15 -25 -30 -70 -11 -70 30 0 25 18 45 40 45 9 0 21 -5 28
-12z m59 0 c-9 -7 -18 -29 -20 -48 -3 -29 -4 -27 -5 13 -2 42 0 47 20 47 19 0
20 -1 5 -12z m591 -35 c2 -26 -1 -43 -7 -43 -6 0 -11 18 -11 41 0 33 -3 40
-17 37 -12 -2 -20 -16 -24 -43 l-6 -40 -2 46 c-1 46 -1 46 32 45 30 -1 32 -3
35 -43z m180 35 c17 -17 15 -53 -3 -68 -8 -7 -25 -10 -40 -6 -21 5 -25 12 -25
40 0 19 6 37 13 39 22 9 43 7 55 -5z m620 0 c21 -21 13 -38 -18 -38 -16 0 -30
-5 -30 -10 0 -17 29 -23 45 -10 10 8 15 9 15 1 0 -17 -48 -25 -65 -11 -18 15
-19 34 -5 61 12 21 40 25 58 7z m102 -34 c6 -40 5 -41 -24 -42 -60 -2 -71 41
-14 53 22 5 27 10 19 18 -9 9 -17 8 -31 -1 -11 -7 -20 -8 -20 -4 0 16 14 23
40 20 21 -3 26 -9 30 -44z m58 39 c-13 -3 -18 -15 -18 -44 0 -21 -4 -39 -10
-39 -5 0 -10 20 -10 45 0 43 1 45 28 44 16 -1 20 -3 10 -6z m392 -1188 l0
-855 -1705 0 -1705 0 0 855 0 855 1705 0 1705 0 0 -855z"/>
<path d="M320 2045 l0 -115 285 0 285 0 0 115 0 115 -285 0 -285 0 0 -115z"/>
<path d="M2274 2066 c-9 -24 0 -51 18 -54 19 -4 35 38 23 57 -9 16 -35 13 -41
-3z"/>
<path d="M1378 2042 c-22 -4 -24 -32 -3 -32 9 0 18 7 22 15 7 19 3 22 -19 17z"/>
<path d="M1547 2074 c-13 -13 -7 -24 14 -24 11 0 19 5 17 12 -5 14 -22 21 -31
12z"/>
<path d="M2366 2062 c-9 -27 3 -54 23 -50 22 5 22 62 -1 66 -9 2 -19 -5 -22
-16z"/>
<path d="M2997 2073 c-14 -13 -6 -23 18 -23 18 0 23 4 19 15 -6 16 -26 20 -37
8z"/>
<path d="M3098 2043 c-22 -6 -23 -22 -2 -30 15 -5 33 11 34 30 0 7 -4 7 -32 0z"/>
<path d="M1375 1540 c-3 -5 -19 -10 -35 -10 -16 0 -32 -4 -35 -10 -3 -5 -15
-10 -26 -10 -38 0 -122 -54 -206 -132 -46 -43 -88 -78 -93 -78 -5 0 -33 -19
-62 -43 -29 -23 -73 -53 -98 -66 -25 -12 -64 -41 -87 -64 l-43 -41 -23 22
c-13 12 -34 48 -47 80 -13 31 -33 75 -45 97 -12 22 -30 66 -40 98 -19 65 -36
78 -65 52 -26 -23 -25 -38 4 -94 30 -58 96 -206 96 -216 0 -5 7 -15 15 -24 9
-9 26 -32 38 -51 17 -27 31 -36 56 -38 29 -3 41 4 85 47 28 27 70 60 93 73 66
37 200 137 273 206 36 34 70 62 74 62 5 0 21 11 36 24 17 14 52 28 87 34 32 6
65 12 73 14 10 2 18 -11 26 -43 6 -26 19 -57 27 -70 24 -36 46 -132 56 -243 6
-64 15 -104 25 -115 9 -10 16 -26 16 -36 0 -39 24 -86 48 -92 29 -7 152 5 167
16 15 12 52 21 138 31 43 5 90 16 105 23 52 28 105 48 110 43 2 -3 17 1 33 9
15 8 37 15 49 15 19 0 20 -6 20 -109 0 -89 -3 -111 -17 -122 -13 -11 -63 -13
-247 -11 -189 2 -234 0 -249 -12 -23 -18 -19 -47 8 -61 35 -18 118 -77 171
-122 28 -24 54 -43 57 -43 3 0 48 -20 100 -45 128 -61 203 -75 399 -75 153 0
256 14 293 40 6 4 44 15 85 25 41 10 101 31 132 46 31 16 78 33 104 39 27 6
54 16 61 22 21 17 15 75 -16 146 -28 65 -81 211 -116 320 -17 54 -41 77 -65
62 -12 -7 -11 -17 3 -62 9 -29 27 -87 38 -128 12 -41 30 -93 40 -115 32 -70
59 -145 59 -164 0 -15 -10 -21 -42 -26 -24 -4 -59 -15 -78 -25 -49 -25 -139
-54 -253 -84 -85 -22 -120 -26 -248 -26 -173 0 -279 18 -354 59 -27 16 -66 34
-85 41 -19 7 -49 27 -66 44 -17 17 -46 41 -65 54 l-34 23 170 -6 170 -7 55 30
55 30 0 147 c0 142 -1 147 -24 166 -31 25 -55 24 -147 -6 -42 -14 -87 -25 -99
-25 -12 0 -30 -9 -39 -19 -11 -13 -35 -21 -69 -24 -29 -2 -70 -10 -92 -16 -67
-18 -166 -32 -186 -26 -13 5 -19 16 -19 38 0 18 -7 41 -15 51 -8 11 -15 41
-15 67 0 80 -28 214 -55 260 -13 24 -25 56 -25 72 0 53 -50 117 -91 117 -15 0
-31 -4 -34 -10z"/>
</g>
</svg>
